<?xml version="1.0" encoding="utf-8"?>
<!-- Generator: Adobe Illustrator 19.0.0, SVG Export Plug-In . SVG Version: 6.00 Build 0)  -->
<svg version="1.1" id="Livello_1" xmlns="http://www.w3.org/2000/svg" xmlns:xlink="http://www.w3.org/1999/xlink" x="0px" y="0px"
	 viewBox="17.7 -12.3 26.7 26.7" style="enable-background:new 17.7 -12.3 26.7 26.7;" xml:space="preserve">
<g>
	<path d="M31-12.3c-7.4,0-13.3,6-13.3,13.3s6,13.3,13.3,13.3S44.3,8.4,44.3,1S38.4-12.3,31-12.3z M31,11.7
		c-5.9,0-10.7-4.8-10.7-10.7S25.1-9.7,31-9.7S41.7-4.9,41.7,1S36.9,11.7,31,11.7z"/>
	<path d="M30.8-2.8C32.5-2.7,33-1.3,33-0.6h2.4c-0.1-2.6-2-4.3-4.6-4.3c-2.9,0-5.1,1.9-5.1,6c0,2.6,1.2,5.7,5.1,5.7
		c3,0,4.5-2.2,4.6-3.9H33c0,0.8-0.6,1.8-2.2,1.9c-1.7-0.1-2.5-1.4-2.5-3.6C28.3-2.7,30-2.8,30.8-2.8z"/>
</g>
</svg>
