<?xml version="1.0" encoding="utf-8"?>
<!-- Generator: Adobe Illustrator 26.0.2, SVG Export Plug-In . SVG Version: 6.00 Build 0)  -->
<svg version="1.0" id="ARTWORK" xmlns="http://www.w3.org/2000/svg" xmlns:xlink="http://www.w3.org/1999/xlink" x="0px" y="0px"
	 viewBox="0 0 68.03 68.03" enable-background="new 0 0 68.03 68.03" xml:space="preserve">
<path fill="#B29581" d="M34.02,68.03C15.26,68.03,0,52.77,0,34.02S15.26,0,34.02,0s34.01,15.26,34.01,34.01S52.77,68.03,34.02,68.03
	z M34.02,2.9C16.86,2.9,2.9,16.86,2.9,34.02s13.96,31.11,31.11,31.11s31.11-13.96,31.11-31.11S51.17,2.9,34.02,2.9z"/>
<path fill="#B29581" d="M46.29,43.98c-0.19-5.75-5.91-8.47-11.44-11.11c-5.08-2.41-9.87-4.69-10-8.88
	c-0.06-1.93,0.49-3.49,1.65-4.64c1.51-1.49,4.11-2.31,6.93-2.19c4.93,0.21,9.21,3.78,9.34,7.8l2.9-0.09
	c-0.16-5.02-4.58-9.36-10.2-10.38V8.51h-2.9v5.76c-3.28,0.07-6.2,1.14-8.12,3.03c-1.73,1.71-2.6,4.06-2.51,6.8
	c0.19,5.95,6.02,8.72,11.66,11.4c4.97,2.36,9.66,4.59,9.79,8.58c0.06,1.78-0.62,3.46-1.89,4.73c-1.59,1.57-4,2.38-6.76,2.26
	c-3.03-0.13-10.09-1.31-10.36-9.57l-2.9,0.09c0.29,9.11,7.07,11.53,11.08,12.17v5.77h2.9v-5.56c3.23-0.04,6.08-1.13,8.07-3.1
	C45.39,49.02,46.37,46.57,46.29,43.98z"/>
</svg>
