<svg id="Layer_1" data-name="Layer 1" xmlns="http://www.w3.org/2000/svg" viewBox="0 0 49.92 49.9"><defs><style>.cls-1{fill:#aa8768;}</style></defs><path class="cls-1" d="M10.43,37.47H2.11V18.76h8.32ZM4.19,35.39H8.35V20.85H4.19Zm25,2.08H20.83V18.76h8.32ZM22.9,35.39h4.16V20.85H22.91Zm25,2.08H39.56V18.76h8.32Zm-6.25-2.08h4.16V20.85H41.63Z" transform="translate(-0.03 -0.04)"/><path class="cls-1" d="M49.93,49.94H6.63A6.66,6.66,0,0,1,0,43.34V39.6h49.9ZM2.11,41.65v1.69a4.58,4.58,0,0,0,4.58,4.55H47.88V41.65ZM50,16.69H0v-8L25,0l25,8.63ZM2.11,14.6H47.88V10.14L25,2.24,2.11,10.14Z" transform="translate(-0.03 -0.04)"/></svg>