<svg id="svg" version="1.1" xmlns="http://www.w3.org/2000/svg" xmlns:xlink="http://www.w3.org/1999/xlink" width="400" height="147.51773049645388" viewBox="0, 0, 400,147.51773049645388"><g id="svgg"><path id="path0" d="M83.013 46.427 C 82.699 46.563,82.096 46.999,81.673 47.395 C 81.026 48.000,80.758 48.133,79.993 48.229 C 75.792 48.758,74.394 49.195,73.727 50.187 C 73.336 50.770,72.935 51.055,71.511 51.768 C 69.960 52.544,69.708 52.734,69.178 53.527 C 68.836 54.038,68.211 54.666,67.708 55.002 C 66.935 55.518,66.736 55.782,66.011 57.245 C 65.386 58.507,64.970 59.106,64.276 59.747 C 63.596 60.375,63.341 60.738,63.277 61.170 C 62.707 65.018,62.659 65.211,61.774 67.297 C 60.090 71.268,59.825 80.948,61.355 82.602 C 61.968 83.264,62.678 85.849,63.086 88.905 C 63.323 90.676,63.797 91.805,64.502 92.271 C 65.144 92.696,66.000 94.071,66.000 94.677 C 66.000 95.041,66.628 95.833,66.916 95.833 C 67.323 95.833,68.199 96.715,68.509 97.437 C 68.834 98.195,69.283 98.573,70.083 98.762 C 70.954 98.968,71.800 99.478,72.250 100.068 C 72.809 100.801,74.502 101.428,76.583 101.673 C 78.349 101.880,79.383 102.326,79.887 103.097 C 80.490 104.020,81.041 104.083,88.417 104.083 C 95.585 104.083,95.732 104.065,96.314 103.078 C 96.875 102.127,97.361 101.928,99.408 101.811 C 104.648 101.512,104.333 101.946,104.333 95.000 L 104.333 89.391 103.949 89.031 C 103.432 88.545,101.827 88.954,100.618 89.880 C 98.851 91.233,96.816 91.538,90.056 91.466 C 83.735 91.398,83.216 91.298,81.917 89.903 C 81.550 89.509,80.902 89.039,80.478 88.858 C 79.616 88.490,79.028 87.797,78.608 86.655 C 78.416 86.132,78.049 85.651,77.439 85.125 C 76.056 83.931,75.836 82.565,75.836 75.167 C 75.836 67.780,76.057 66.402,77.432 65.215 C 78.037 64.692,78.473 64.119,78.823 63.386 C 79.266 62.459,79.438 62.268,80.125 61.944 C 81.385 61.350,81.674 61.123,82.016 60.461 C 82.699 59.139,84.115 58.832,89.489 58.838 C 95.923 58.845,98.487 59.310,99.173 60.596 C 99.803 61.777,101.607 61.744,102.229 60.540 C 102.359 60.289,102.762 59.845,103.124 59.554 C 103.857 58.965,104.011 58.533,104.333 56.167 C 104.438 55.387,104.707 54.205,104.929 53.538 C 105.227 52.644,105.333 51.963,105.333 50.940 L 105.333 49.553 104.375 49.287 C 102.983 48.901,100.802 48.535,99.090 48.400 L 97.596 48.282 96.756 47.402 C 96.294 46.918,95.706 46.442,95.447 46.344 C 94.660 46.046,83.724 46.119,83.013 46.427 M119.333 46.476 L 118.250 46.762 118.250 75.167 L 118.250 103.571 119.333 103.858 C 121.043 104.310,131.746 104.298,132.292 103.843 L 132.667 103.530 132.667 93.473 C 132.667 82.046,132.607 82.574,133.994 81.875 C 135.058 81.338,137.275 81.338,138.340 81.875 C 139.097 82.257,139.206 82.414,140.015 84.295 C 140.223 84.778,140.625 85.350,140.909 85.566 C 141.577 86.075,142.262 87.346,142.561 88.628 C 142.837 89.809,143.070 90.189,143.837 90.707 C 144.535 91.178,145.229 92.531,145.594 94.136 C 145.747 94.807,145.957 95.423,146.061 95.506 C 147.291 96.478,147.469 96.720,148.164 98.365 C 148.684 99.597,149.111 100.321,149.670 100.922 C 150.238 101.532,150.513 102.003,150.678 102.647 C 151.088 104.247,150.661 104.167,158.781 104.167 C 165.792 104.167,166.833 104.090,166.833 103.574 C 166.833 103.233,165.716 101.459,165.159 100.917 C 164.352 100.129,164.088 99.669,163.815 98.567 C 163.592 97.670,163.224 97.000,162.955 97.000 C 162.436 97.000,161.634 96.062,161.004 94.719 C 160.591 93.837,160.045 92.990,159.598 92.536 C 158.835 91.763,158.474 91.087,158.159 89.849 C 157.978 89.133,157.517 88.570,156.603 87.948 C 156.360 87.782,155.855 87.039,155.482 86.298 C 155.109 85.556,154.445 84.567,154.007 84.099 C 152.972 82.996,152.790 82.612,152.263 80.424 C 152.021 79.420,151.710 78.473,151.571 78.319 C 151.079 77.777,152.710 75.867,153.992 75.483 C 154.499 75.331,154.698 75.151,154.930 74.637 C 155.288 73.843,156.133 73.070,156.804 72.923 C 157.498 72.771,157.758 72.411,158.073 71.167 C 158.511 69.436,159.065 68.382,159.747 67.980 C 160.796 67.361,160.833 67.170,160.833 62.445 C 160.833 57.714,160.779 57.416,159.760 56.618 C 159.041 56.054,158.558 55.162,158.072 53.504 C 157.684 52.184,157.682 52.181,156.465 51.753 C 155.894 51.553,155.455 51.217,154.852 50.522 C 153.908 49.432,152.851 49.011,150.167 48.657 C 148.281 48.408,146.814 47.908,146.046 47.252 C 144.794 46.182,144.571 46.165,131.823 46.178 C 121.589 46.188,120.305 46.219,119.333 46.476 M176.875 46.446 L 176.500 46.707 176.500 75.168 L 176.500 103.628 176.911 103.897 C 177.554 104.319,208.193 104.307,209.078 103.886 L 209.667 103.605 209.667 97.890 L 209.667 92.175 209.125 91.879 C 208.635 91.611,207.842 91.575,200.750 91.500 L 192.917 91.417 192.107 91.018 C 191.662 90.799,191.043 90.365,190.732 90.054 L 190.167 89.489 190.167 86.584 L 190.167 83.678 190.678 83.096 C 190.959 82.775,191.616 82.304,192.136 82.048 L 193.083 81.583 200.746 81.535 C 208.309 81.488,208.414 81.482,208.788 81.131 L 209.167 80.775 209.167 75.167 L 209.167 69.558 208.788 69.202 C 208.414 68.851,208.309 68.846,200.746 68.798 C 192.124 68.744,192.361 68.777,190.855 67.416 L 190.167 66.795 190.167 63.819 L 190.167 60.844 190.726 60.285 C 191.033 59.978,191.652 59.544,192.101 59.321 L 192.917 58.917 200.750 58.833 C 207.842 58.758,208.635 58.722,209.125 58.454 L 209.667 58.158 209.667 52.493 L 209.667 46.828 209.125 46.498 C 208.372 46.039,177.530 45.989,176.875 46.446 M222.292 46.460 L 221.833 46.744 221.833 75.169 L 221.833 103.595 222.317 103.881 C 222.762 104.143,223.727 104.167,234.132 104.167 C 247.370 104.167,247.673 104.142,249.014 102.936 C 249.895 102.144,250.553 101.904,252.250 101.755 C 255.171 101.500,257.000 100.993,257.423 100.324 C 257.835 99.671,258.585 99.000,258.902 99.000 C 259.007 99.000,259.616 98.747,260.255 98.437 C 261.402 97.881,261.857 97.480,263.035 95.991 C 263.366 95.573,264.127 94.728,264.728 94.112 C 265.411 93.412,266.010 92.595,266.329 91.926 C 266.782 90.976,267.625 90.000,267.993 90.000 C 268.284 90.000,268.461 89.234,269.344 84.169 C 269.561 82.924,269.846 82.288,270.504 81.583 C 271.912 80.076,271.913 67.429,270.505 65.917 C 269.736 65.090,269.366 64.124,269.003 62.000 C 268.629 59.815,268.204 58.822,267.252 57.917 C 266.594 57.290,266.304 56.856,266.083 56.167 C 265.707 54.994,265.605 54.875,264.578 54.421 C 263.741 54.051,263.000 53.337,263.000 52.901 C 263.000 52.565,262.317 52.000,261.912 52.000 C 261.308 52.000,259.465 50.976,258.755 50.247 C 257.693 49.155,256.101 48.696,252.342 48.400 C 250.782 48.277,250.175 47.989,249.754 47.174 C 249.224 46.150,249.454 46.166,235.455 46.171 C 223.778 46.175,222.713 46.199,222.292 46.460 M286.750 46.473 L 285.750 46.752 285.708 75.179 L 285.666 103.605 286.875 103.888 C 288.605 104.293,299.057 104.308,299.630 103.907 L 300.000 103.648 300.000 75.167 L 300.000 46.686 299.630 46.426 C 299.061 46.028,288.201 46.067,286.750 46.473 M310.208 46.446 L 309.833 46.707 309.833 52.484 L 309.833 58.261 310.317 58.547 C 310.750 58.803,311.422 58.833,316.612 58.833 C 323.111 58.833,323.242 58.855,323.862 60.010 C 324.153 60.552,324.167 61.574,324.167 82.097 C 324.167 102.732,324.179 103.626,324.471 103.891 C 324.929 104.305,335.917 104.280,337.417 103.861 L 338.417 103.582 338.459 82.241 L 338.501 60.900 339.292 60.050 C 340.411 58.848,340.492 58.835,347.263 58.834 L 353.109 58.833 353.471 58.448 C 353.993 57.892,354.045 46.910,353.529 46.442 C 353.073 46.030,310.799 46.034,310.208 46.446 M141.913 56.346 C 144.944 57.480,146.467 61.321,145.664 65.807 C 145.345 67.584,144.812 69.000,144.462 69.000 C 144.383 69.000,143.847 69.481,143.271 70.069 C 141.840 71.528,141.335 71.668,137.511 71.664 C 132.511 71.659,132.667 71.915,132.667 63.733 C 132.667 55.658,132.440 56.001,137.785 56.000 C 140.620 56.000,141.094 56.040,141.913 56.346 M248.224 59.318 C 248.970 59.612,249.318 59.871,249.705 60.420 C 249.983 60.815,250.482 61.266,250.814 61.422 C 252.580 62.255,252.566 62.242,253.167 63.471 C 253.577 64.311,253.935 64.790,254.375 65.088 C 255.733 66.009,256.050 67.754,256.050 74.333 C 256.050 81.163,255.691 83.401,254.403 84.586 C 253.909 85.040,253.534 85.604,253.238 86.336 C 252.696 87.678,252.470 87.936,251.382 88.453 C 250.483 88.880,249.967 89.311,249.449 90.066 C 248.658 91.218,247.350 91.486,242.465 91.494 C 238.368 91.501,237.672 91.357,236.362 90.236 L 235.667 89.641 235.667 75.185 L 235.667 60.729 236.125 60.303 C 237.585 58.945,238.140 58.832,243.083 58.887 C 246.983 58.930,247.312 58.958,248.224 59.318 " stroke="none" fill="#0a377a" fill-rule="evenodd"></path><path id="path1" d="M81.917 45.255 C 81.458 45.383,80.408 45.607,79.583 45.754 C 78.381 45.969,77.984 46.115,77.583 46.492 C 76.911 47.125,76.278 47.425,74.724 47.849 C 73.116 48.287,72.906 48.396,71.876 49.325 C 71.424 49.733,70.502 50.371,69.828 50.742 C 68.950 51.226,68.410 51.667,67.926 52.297 C 67.554 52.781,66.883 53.456,66.435 53.797 C 65.877 54.220,65.397 54.811,64.915 55.662 C 64.528 56.346,63.922 57.233,63.568 57.632 C 62.631 58.688,62.413 59.069,62.089 60.219 C 61.929 60.786,61.650 61.775,61.469 62.417 C 61.288 63.058,60.890 63.958,60.586 64.417 C 58.548 67.483,58.584 84.019,60.635 87.083 C 61.300 88.077,61.486 88.575,61.922 90.537 C 62.399 92.680,62.616 93.133,63.497 93.831 C 63.927 94.171,64.367 94.764,64.711 95.467 C 65.095 96.254,65.473 96.739,66.027 97.160 C 66.455 97.485,67.061 98.123,67.375 98.580 C 67.785 99.176,68.245 99.574,69.014 99.996 C 69.602 100.319,70.387 100.883,70.758 101.250 C 71.313 101.799,71.798 102.043,73.508 102.632 C 75.524 103.327,77.023 103.913,79.083 104.813 L 80.083 105.250 88.083 105.250 L 96.083 105.250 97.016 104.792 C 97.805 104.404,98.161 104.333,99.324 104.333 C 100.675 104.333,100.711 104.322,101.412 103.708 C 101.830 103.341,102.644 102.892,103.384 102.619 C 104.268 102.293,104.795 101.981,105.155 101.572 L 105.667 100.988 105.666 95.036 C 105.665 88.286,105.678 88.352,104.317 87.658 L 103.620 87.303 101.544 87.667 C 99.021 88.110,98.105 88.404,97.305 89.029 C 95.875 90.146,95.503 90.219,90.811 90.301 L 86.538 90.375 85.561 89.929 C 85.023 89.683,84.321 89.232,84.000 88.926 C 83.391 88.344,82.503 87.847,81.483 87.518 C 80.690 87.261,80.264 86.779,79.849 85.667 C 79.661 85.162,79.241 84.337,78.916 83.833 C 77.452 81.564,77.010 79.557,77.010 75.167 C 77.010 70.743,77.492 68.594,78.962 66.457 C 79.286 65.986,79.766 65.127,80.029 64.547 C 80.470 63.574,80.577 63.462,81.425 63.087 C 81.930 62.863,82.775 62.269,83.301 61.767 C 84.890 60.252,85.372 60.107,89.052 60.035 C 92.405 59.970,93.493 60.146,95.242 61.039 C 100.621 63.782,104.222 63.188,105.097 59.412 C 105.665 56.963,106.086 55.745,106.648 54.929 C 107.553 53.613,107.833 52.701,107.833 51.066 C 107.833 48.850,107.343 48.358,104.704 47.931 C 102.890 47.638,102.098 47.324,101.333 46.593 C 100.805 46.088,100.625 46.025,99.417 45.918 C 98.683 45.853,97.545 45.620,96.887 45.400 C 95.413 44.907,83.576 44.792,81.917 45.255 M118.417 45.152 C 117.557 45.302,117.137 45.539,116.601 46.176 L 116.167 46.692 116.167 75.167 L 116.167 103.641 116.603 104.160 C 117.536 105.268,117.363 105.245,125.063 105.303 C 132.692 105.361,132.644 105.367,133.501 104.390 L 134.000 103.822 134.000 93.773 L 134.000 83.725 134.386 83.362 C 134.719 83.049,134.963 83.000,136.190 83.000 C 137.933 83.000,138.065 83.115,138.728 85.212 C 139.110 86.422,139.330 86.823,140.002 87.535 C 140.919 88.507,141.193 88.995,141.605 90.398 C 141.780 90.995,142.159 91.706,142.572 92.211 C 143.799 93.716,144.001 94.068,144.452 95.482 C 144.762 96.456,145.109 97.141,145.591 97.733 C 146.389 98.712,147.165 100.065,147.590 101.218 C 147.753 101.659,148.171 102.334,148.519 102.718 C 148.867 103.102,149.326 103.678,149.539 103.997 C 150.441 105.349,150.288 105.328,158.856 105.331 L 166.462 105.333 167.328 104.875 C 168.835 104.077,168.888 103.808,167.920 101.841 C 167.332 100.646,166.854 99.935,166.227 99.326 C 165.571 98.688,165.244 98.191,164.913 97.324 C 164.588 96.474,164.284 96.005,163.757 95.541 C 163.255 95.099,162.783 94.393,162.168 93.164 C 161.651 92.130,160.976 91.077,160.514 90.583 C 160.018 90.054,159.596 89.378,159.355 88.730 C 159.103 88.052,158.650 87.343,158.007 86.618 C 157.474 86.018,156.718 84.940,156.326 84.222 C 155.934 83.504,155.260 82.538,154.828 82.075 C 153.978 81.162,153.993 81.195,153.583 79.276 L 153.304 77.970 153.694 77.552 C 153.908 77.322,154.383 76.985,154.750 76.803 C 155.117 76.621,155.904 75.972,156.500 75.361 C 157.096 74.750,157.831 74.120,158.135 73.960 C 158.568 73.733,158.826 73.369,159.339 72.257 C 159.699 71.480,160.329 70.410,160.740 69.880 C 162.017 68.233,162.059 68.022,162.130 62.917 C 162.210 57.150,161.961 55.783,160.576 54.398 C 160.245 54.067,159.701 53.229,159.368 52.538 C 158.908 51.582,158.603 51.176,158.099 50.848 C 157.735 50.611,156.996 49.980,156.458 49.446 C 155.351 48.347,155.074 48.208,152.750 47.585 C 151.833 47.339,150.408 46.807,149.583 46.403 C 146.853 45.065,147.453 45.111,132.417 45.071 C 125.083 45.051,118.783 45.088,118.417 45.152 M176.237 45.314 C 175.863 45.485,175.394 45.832,175.195 46.085 L 174.833 46.545 174.833 75.176 L 174.833 103.808 175.255 104.309 C 176.165 105.390,175.391 105.348,193.333 105.297 C 211.548 105.244,210.252 105.333,211.625 104.042 L 212.167 103.533 212.167 97.882 L 212.167 92.232 211.625 91.708 C 210.298 90.424,210.316 90.426,201.750 90.333 C 191.902 90.226,192.667 90.551,192.667 86.470 L 192.667 83.659 193.449 83.163 L 194.232 82.667 201.491 82.666 C 211.291 82.665,210.334 83.481,210.333 75.133 C 210.332 66.863,211.287 67.667,201.458 67.667 L 194.232 67.667 193.449 67.170 L 192.667 66.674 192.667 63.863 C 192.667 59.782,191.902 60.107,201.750 60.000 C 210.316 59.907,210.298 59.909,211.625 58.625 L 212.167 58.101 212.167 52.451 L 212.167 46.800 211.625 46.291 C 210.251 44.999,211.561 45.088,193.250 45.044 C 177.625 45.006,176.887 45.017,176.237 45.314 M221.747 45.230 C 221.470 45.352,221.001 45.728,220.705 46.065 L 220.167 46.678 220.167 75.172 L 220.167 103.666 220.768 104.332 C 221.722 105.387,221.310 105.360,235.583 105.302 L 248.583 105.250 249.833 104.790 C 250.521 104.536,251.571 104.186,252.167 104.012 C 256.086 102.862,258.995 101.632,259.347 100.974 C 259.444 100.793,260.309 100.268,261.270 99.808 C 262.919 99.019,263.063 98.908,263.848 97.829 C 264.305 97.201,264.986 96.461,265.361 96.185 C 265.736 95.909,266.457 95.065,266.963 94.309 C 267.469 93.552,268.208 92.535,268.604 92.049 C 269.117 91.419,269.423 90.818,269.669 89.957 C 269.858 89.293,270.316 88.000,270.687 87.083 C 272.643 82.248,272.747 81.572,272.749 73.750 C 272.750 65.976,272.563 64.641,271.174 62.491 C 270.790 61.897,270.418 60.994,270.175 60.064 C 269.604 57.880,269.389 57.434,268.514 56.628 C 268.077 56.226,267.466 55.421,267.156 54.839 C 266.728 54.036,266.391 53.652,265.755 53.241 C 265.294 52.943,264.629 52.352,264.278 51.926 C 263.856 51.417,263.288 50.987,262.611 50.665 C 262.046 50.396,261.168 49.778,260.660 49.292 C 259.718 48.390,259.076 48.108,256.944 47.661 C 255.992 47.462,254.915 46.947,254.333 46.415 C 254.004 46.114,253.601 45.999,252.417 45.868 C 251.592 45.778,250.579 45.564,250.167 45.393 C 249.180 44.985,222.650 44.833,221.747 45.230 M285.730 45.154 C 284.869 45.295,284.244 45.699,283.826 46.384 C 283.507 46.906,283.501 47.460,283.501 75.184 L 283.500 103.451 283.876 104.008 C 284.724 105.266,284.571 105.244,292.546 105.303 C 300.549 105.362,300.360 105.389,301.158 104.097 C 301.698 103.223,301.698 47.110,301.158 46.236 C 300.381 44.978,300.509 44.997,293.064 45.021 C 289.408 45.032,286.108 45.092,285.730 45.154 M309.570 45.316 C 308.125 45.973,308.167 45.759,308.167 52.445 C 308.167 60.589,307.534 59.996,316.221 59.998 L 322.026 60.000 322.513 60.487 L 323.000 60.974 323.001 82.362 C 323.001 106.334,322.903 104.430,324.175 105.088 C 325.118 105.575,338.534 105.385,339.358 104.872 C 340.600 104.099,340.500 106.081,340.500 82.351 L 340.500 61.024 341.121 60.512 L 341.743 60.000 347.580 59.999 C 355.711 59.999,355.000 60.717,355.000 52.500 C 355.000 46.105,354.991 46.039,354.018 45.346 L 353.532 45.000 331.891 45.004 C 311.185 45.007,310.221 45.021,309.570 45.316 M96.605 45.984 C 97.167 46.249,97.673 46.541,97.729 46.633 C 97.785 46.724,98.441 46.852,99.185 46.918 C 100.181 47.006,100.773 47.162,101.428 47.506 C 101.917 47.763,102.902 48.098,103.617 48.250 C 106.860 48.938,107.000 49.054,107.000 51.070 C 107.000 52.385,106.944 52.688,106.579 53.336 C 105.802 54.715,105.469 55.573,105.059 57.250 C 103.821 62.313,101.867 63.352,97.833 61.089 C 97.330 60.806,94.303 59.929,92.915 59.664 C 92.300 59.546,90.725 59.496,88.832 59.533 C 85.069 59.607,84.319 59.819,82.846 61.224 C 82.327 61.720,81.605 62.277,81.243 62.464 C 80.437 62.878,79.814 63.530,79.364 64.428 C 79.177 64.801,78.707 65.508,78.319 65.998 C 75.882 69.081,75.811 81.252,78.212 84.196 C 78.535 84.592,79.032 85.398,79.315 85.986 C 79.976 87.356,80.203 87.596,81.417 88.207 C 81.967 88.485,82.879 89.041,83.443 89.443 C 85.224 90.712,85.814 90.834,90.151 90.830 C 95.031 90.826,95.574 90.740,97.979 89.594 C 100.108 88.578,103.294 87.712,103.835 88.001 C 103.992 88.085,104.356 88.422,104.644 88.749 L 105.167 89.345 105.167 95.070 L 105.167 100.795 104.519 101.380 C 104.114 101.746,103.503 102.071,102.894 102.246 C 102.356 102.400,101.603 102.708,101.220 102.930 C 100.633 103.270,100.303 103.333,99.116 103.333 C 98.007 103.333,97.659 103.392,97.479 103.610 C 97.353 103.762,96.800 104.099,96.250 104.360 L 95.250 104.833 88.410 104.833 C 80.766 104.833,80.277 104.778,78.706 103.740 C 78.148 103.371,77.340 103.044,76.483 102.839 C 73.686 102.171,72.146 101.551,71.134 100.684 C 70.612 100.238,69.841 99.705,69.421 99.502 C 69.000 99.298,68.415 98.824,68.120 98.449 C 67.825 98.073,67.121 97.312,66.555 96.758 C 65.989 96.203,65.361 95.412,65.159 95.000 C 64.957 94.587,64.396 93.831,63.911 93.320 C 62.986 92.343,62.979 92.328,62.185 89.250 C 61.925 88.242,61.486 86.887,61.209 86.240 C 59.185 81.503,59.059 68.938,61.000 65.417 C 61.611 64.307,62.333 62.144,62.333 61.420 C 62.334 60.862,63.236 59.133,63.969 58.286 C 64.347 57.849,65.004 56.874,65.429 56.121 C 65.977 55.147,66.440 54.566,67.029 54.113 C 67.484 53.763,68.084 53.154,68.361 52.761 C 68.717 52.257,69.268 51.820,70.225 51.285 C 70.972 50.867,71.987 50.179,72.480 49.756 C 73.580 48.812,73.916 48.635,75.500 48.169 C 76.188 47.967,77.087 47.622,77.500 47.403 C 77.912 47.184,78.866 46.860,79.618 46.683 C 80.371 46.506,81.069 46.310,81.170 46.248 C 82.262 45.573,82.930 45.512,89.333 45.506 L 95.583 45.500 96.605 45.984 M145.527 45.826 C 146.321 46.002,147.539 46.412,148.235 46.737 C 148.930 47.063,150.599 47.632,151.945 48.002 C 154.604 48.734,155.175 49.010,155.882 49.909 C 156.139 50.235,156.626 50.644,156.966 50.819 C 157.783 51.241,158.534 52.077,158.921 53.000 C 159.259 53.803,159.709 54.534,160.491 55.553 C 161.552 56.933,161.693 57.811,161.635 62.698 C 161.577 67.584,161.557 67.681,160.231 69.233 C 159.925 69.591,159.397 70.554,159.057 71.374 C 158.567 72.556,158.299 72.975,157.765 73.391 C 157.395 73.680,156.687 74.327,156.192 74.829 C 155.696 75.331,154.837 76.043,154.281 76.412 C 152.617 77.517,152.559 77.658,152.994 79.514 C 153.419 81.323,153.658 81.842,154.485 82.750 C 154.819 83.117,155.465 84.084,155.921 84.899 C 156.377 85.714,157.111 86.764,157.551 87.232 C 158.003 87.713,158.631 88.664,158.992 89.417 C 159.344 90.150,159.872 90.975,160.165 91.250 C 160.459 91.525,161.076 92.500,161.538 93.417 C 162.078 94.492,162.709 95.440,163.313 96.089 C 163.924 96.745,164.359 97.403,164.563 97.978 C 164.760 98.533,165.202 99.213,165.750 99.806 C 167.055 101.217,168.123 103.421,167.719 103.868 C 166.849 104.830,166.819 104.833,158.795 104.833 L 151.411 104.833 150.789 104.411 C 150.447 104.179,150.017 103.693,149.833 103.332 C 149.649 102.971,149.277 102.425,149.008 102.117 C 148.738 101.810,148.170 100.835,147.745 99.950 C 147.320 99.066,146.609 97.849,146.164 97.246 C 145.719 96.643,145.227 95.797,145.072 95.366 C 144.495 93.765,143.871 92.562,143.236 91.829 C 142.877 91.414,142.441 90.739,142.266 90.329 C 141.334 88.138,141.102 87.701,140.582 87.167 C 140.038 86.607,139.163 84.903,138.940 83.971 C 138.574 82.441,135.234 81.791,134.013 83.013 L 133.500 83.526 133.495 93.554 C 133.489 104.466,133.541 103.870,132.544 104.527 C 132.119 104.808,131.610 104.831,125.917 104.826 C 119.236 104.821,117.997 104.702,117.239 103.989 L 116.833 103.609 116.833 75.167 L 116.833 46.725 117.242 46.341 C 118.058 45.574,118.756 45.535,131.833 45.521 C 143.319 45.508,144.173 45.527,145.527 45.826 M210.096 46.090 L 210.917 46.598 210.917 52.502 L 210.917 58.406 209.860 58.953 L 208.804 59.500 201.527 59.504 C 193.494 59.508,193.455 59.512,192.292 60.624 L 191.833 61.062 191.833 63.833 L 191.833 66.604 192.292 67.042 C 193.454 68.153,193.500 68.159,201.475 68.163 L 208.700 68.167 209.267 68.733 L 209.833 69.300 209.833 75.167 L 209.833 81.033 209.267 81.600 L 208.700 82.167 201.475 82.170 C 193.500 82.174,193.454 82.180,192.292 83.291 L 191.833 83.729 191.833 86.500 L 191.833 89.271 192.292 89.709 C 193.455 90.821,193.494 90.826,201.527 90.830 L 208.804 90.833 209.860 91.380 L 210.917 91.927 210.917 97.831 L 210.917 103.736 210.096 104.243 L 209.276 104.750 193.346 104.797 C 175.988 104.847,176.924 104.883,176.086 104.147 L 175.500 103.632 175.500 75.181 L 175.500 46.729 175.958 46.303 C 176.210 46.069,176.567 45.795,176.750 45.693 C 176.989 45.560,181.617 45.518,193.180 45.545 L 209.276 45.583 210.096 46.090 M250.087 46.158 C 251.068 46.666,251.630 46.842,252.554 46.930 C 253.243 46.996,254.068 47.202,254.500 47.415 C 254.912 47.618,255.875 47.951,256.639 48.154 C 258.593 48.674,259.482 49.087,260.250 49.833 C 260.617 50.189,261.383 50.711,261.953 50.992 C 262.557 51.290,263.428 51.938,264.041 52.544 C 264.620 53.115,265.373 53.793,265.715 54.050 C 266.057 54.306,266.526 54.892,266.759 55.352 C 266.992 55.811,267.583 56.623,268.073 57.156 C 268.563 57.689,269.007 58.266,269.059 58.437 C 269.111 58.609,269.388 59.575,269.674 60.583 C 269.961 61.592,270.443 62.867,270.747 63.417 C 272.182 66.020,272.692 71.493,272.157 78.564 C 271.982 80.873,271.872 81.337,270.774 84.417 C 270.545 85.058,270.078 86.521,269.737 87.667 C 269.123 89.729,268.503 91.209,268.165 91.418 C 268.069 91.477,267.458 92.319,266.807 93.289 C 266.156 94.259,265.127 95.547,264.520 96.151 C 263.913 96.756,263.199 97.542,262.933 97.898 C 262.568 98.387,262.069 98.724,260.909 99.266 C 260.041 99.672,258.970 100.335,258.456 100.785 C 257.466 101.651,254.839 102.599,252.256 103.023 C 251.556 103.138,250.796 103.396,250.340 103.674 C 248.539 104.773,249.028 104.736,235.250 104.795 C 221.612 104.853,222.258 104.883,221.420 104.147 L 220.833 103.632 220.833 75.181 L 220.833 46.729 221.292 46.303 C 221.544 46.069,221.900 45.795,222.083 45.694 C 222.318 45.564,226.313 45.509,235.616 45.505 L 248.815 45.500 250.087 46.158 M300.238 46.061 L 300.833 46.623 300.833 75.167 L 300.833 103.711 300.238 104.272 L 299.643 104.833 293.363 104.827 C 286.349 104.821,285.219 104.705,284.544 103.920 L 284.167 103.481 284.167 75.167 L 284.167 46.852 284.547 46.410 C 285.209 45.640,286.226 45.536,293.280 45.517 L 299.643 45.500 300.238 46.061 M353.950 46.033 L 354.500 46.565 354.500 52.466 L 354.500 58.367 353.933 58.933 L 353.367 59.500 347.592 59.500 C 341.318 59.500,341.326 59.499,340.292 60.467 L 339.833 60.896 339.833 82.266 L 339.833 103.637 339.343 104.050 C 338.547 104.720,337.287 104.833,330.661 104.833 L 324.599 104.833 324.050 104.301 L 323.500 103.768 323.500 82.301 L 323.500 60.833 322.833 60.167 L 322.167 59.500 316.322 59.500 C 310.167 59.500,310.149 59.498,309.292 58.698 L 308.833 58.271 308.833 52.500 L 308.833 46.729 309.292 46.303 C 309.544 46.069,309.900 45.795,310.083 45.694 C 310.321 45.563,316.559 45.509,331.909 45.505 L 353.401 45.500 353.950 46.033 M135.628 56.779 C 134.827 56.838,134.578 56.939,134.086 57.403 L 133.500 57.956 133.500 63.806 L 133.500 69.656 134.063 70.218 C 135.426 71.582,140.839 71.134,142.191 69.545 C 142.407 69.291,142.898 68.837,143.282 68.535 C 144.663 67.452,145.139 65.729,144.926 62.587 C 144.786 60.534,144.433 59.804,142.925 58.456 C 141.025 56.757,139.775 56.469,135.628 56.779 M141.082 57.670 C 141.358 57.843,141.792 58.250,142.048 58.574 C 142.303 58.899,142.732 59.278,143.000 59.417 C 143.938 59.901,144.320 60.871,144.352 62.840 C 144.407 66.257,144.124 67.222,142.834 68.016 C 142.384 68.293,141.861 68.770,141.671 69.076 C 140.801 70.484,135.664 71.005,134.395 69.813 L 134.000 69.442 134.000 63.833 L 134.000 58.225 134.412 57.837 C 135.188 57.109,139.994 56.988,141.082 57.670 M238.833 59.847 C 238.421 60.034,237.915 60.346,237.708 60.539 L 237.333 60.891 237.333 75.167 L 237.333 89.442 237.708 89.794 C 238.590 90.621,239.424 90.826,241.917 90.826 C 245.717 90.827,247.492 90.380,248.833 89.087 C 249.154 88.777,249.934 88.232,250.566 87.876 C 251.841 87.156,251.760 87.271,253.410 83.833 C 255.926 78.594,256.067 68.792,253.667 66.058 C 253.382 65.733,252.928 65.013,252.659 64.456 C 252.016 63.130,251.777 62.883,250.573 62.306 C 250.017 62.039,249.195 61.518,248.746 61.147 C 247.015 59.716,246.205 59.503,242.500 59.505 C 239.923 59.507,239.496 59.547,238.833 59.847 M246.256 60.336 C 246.688 60.521,247.411 61.005,247.863 61.412 C 248.651 62.121,250.227 63.000,250.708 63.000 C 251.057 63.000,251.770 63.844,251.982 64.508 C 252.085 64.833,252.580 65.788,253.080 66.631 C 255.176 70.161,255.460 78.188,253.602 81.374 C 253.204 82.057,252.702 83.296,251.967 85.417 C 251.516 86.717,251.441 86.799,250.194 87.359 C 249.612 87.619,248.662 88.227,248.081 88.709 C 246.519 90.006,245.934 90.173,242.557 90.287 L 239.697 90.383 238.932 89.934 L 238.167 89.486 238.167 75.169 L 238.167 60.852 238.875 60.428 C 239.861 59.837,244.944 59.774,246.256 60.336 " stroke="none" fill="#928053" fill-rule="evenodd"></path><path id="path2" d="M0.000 73.750 L 0.000 147.500 200.000 147.500 L 400.000 147.500 400.000 73.750 L 400.000 0.000 200.000 0.000 L 0.000 0.000 0.000 73.750 M99.083 44.624 C 101.139 44.780,101.866 45.060,102.306 45.863 C 102.945 47.031,102.958 47.037,105.165 47.263 C 108.284 47.582,108.668 48.010,108.664 51.167 C 108.659 54.384,108.106 56.120,106.876 56.784 C 106.259 57.116,106.076 57.574,105.926 59.167 C 105.511 63.554,104.565 64.025,97.907 63.160 C 94.820 62.759,94.357 62.593,93.666 61.638 C 92.971 60.677,93.035 60.692,89.466 60.678 C 86.354 60.667,85.500 60.793,85.500 61.264 C 85.500 61.727,84.578 62.522,83.282 63.177 C 81.398 64.130,80.000 65.801,80.000 67.100 C 80.000 67.661,79.259 69.204,78.667 69.877 C 77.792 70.871,77.675 71.494,77.675 75.167 C 77.675 78.756,77.804 79.492,78.581 80.353 C 79.487 81.356,79.563 81.542,80.560 85.203 C 80.884 86.394,80.948 86.498,81.413 86.595 C 83.667 87.062,85.179 87.871,85.554 88.810 C 85.904 89.684,85.822 89.669,90.389 89.647 C 95.243 89.623,95.278 89.617,95.751 88.750 C 96.359 87.635,97.153 87.352,100.671 86.995 C 106.630 86.391,106.389 86.084,106.469 94.371 C 106.544 102.222,106.458 102.550,104.186 103.067 C 103.068 103.322,102.842 103.490,102.306 104.470 C 101.614 105.735,99.874 105.907,87.750 105.910 C 77.418 105.913,75.206 105.623,74.111 104.120 C 73.758 103.635,72.579 103.001,72.028 102.999 C 71.192 102.996,70.383 102.570,69.319 101.570 C 68.692 100.981,68.107 100.500,68.017 100.500 C 67.260 100.500,64.404 97.249,64.054 95.989 C 63.819 95.145,63.720 95.002,63.308 94.911 C 62.189 94.665,61.750 93.831,61.249 91.000 C 60.991 89.544,60.926 89.390,60.449 89.083 C 58.868 88.069,58.498 85.517,58.505 75.667 C 58.512 65.943,58.823 63.602,60.297 62.182 C 61.024 61.482,61.074 61.374,61.361 59.859 C 61.765 57.725,62.213 56.853,63.146 56.382 C 64.007 55.948,64.264 55.623,64.425 54.764 C 64.583 53.919,65.372 53.039,66.090 52.904 C 66.727 52.785,66.908 52.611,67.060 51.971 C 67.245 51.195,67.961 50.521,68.889 50.248 C 70.023 49.915,70.092 49.862,70.544 48.993 C 71.035 48.046,71.945 47.573,73.750 47.325 C 75.556 47.076,75.859 46.930,76.256 46.114 C 76.718 45.162,77.688 44.673,79.160 44.649 C 79.760 44.639,80.700 44.572,81.250 44.501 C 82.503 44.339,96.609 44.436,99.083 44.624 M146.667 44.502 C 149.998 44.790,151.502 45.277,152.415 46.362 C 152.726 46.731,153.141 46.906,154.520 47.247 C 156.384 47.708,157.067 48.152,157.301 49.056 C 157.403 49.448,157.595 49.604,158.302 49.867 C 159.294 50.237,159.622 50.641,159.946 51.888 C 160.069 52.362,160.225 52.770,160.293 52.795 C 162.456 53.574,162.712 54.594,162.715 62.417 C 162.717 69.511,162.470 70.727,160.842 71.642 C 160.393 71.894,160.136 72.170,160.072 72.469 C 159.720 74.121,159.146 74.832,157.954 75.093 C 157.692 75.151,157.440 75.322,157.393 75.474 C 157.000 76.764,156.136 77.487,154.979 77.496 C 154.225 77.503,154.120 77.809,154.354 79.334 L 154.562 80.692 155.376 81.105 C 156.200 81.523,156.812 82.422,156.836 83.250 C 156.852 83.833,157.280 84.404,158.026 84.840 C 158.879 85.339,159.573 86.506,160.006 88.167 C 160.275 89.201,160.324 89.267,161.070 89.628 C 161.847 90.003,162.486 90.933,162.496 91.703 C 162.504 92.270,163.072 93.170,163.676 93.570 C 164.395 94.045,165.416 95.753,165.578 96.750 C 165.796 98.093,165.818 98.137,166.337 98.251 C 167.130 98.425,167.801 99.100,168.065 99.991 C 168.427 101.208,168.788 101.802,169.344 102.089 C 169.838 102.344,170.498 103.219,170.499 103.619 C 170.501 104.048,169.464 104.971,168.463 105.434 L 167.417 105.917 159.438 105.966 C 154.074 105.999,151.169 105.955,150.572 105.831 C 148.865 105.477,147.134 103.658,146.806 101.873 C 146.578 100.632,146.240 99.849,145.875 99.718 C 144.762 99.316,144.110 98.228,143.827 96.299 C 143.581 94.618,143.421 94.301,142.624 93.917 C 141.541 93.394,141.171 92.577,140.569 89.388 C 140.524 89.155,140.303 88.961,139.944 88.842 C 138.821 88.472,137.667 86.049,137.667 84.062 C 137.667 83.726,137.586 83.668,137.125 83.674 C 136.432 83.683,135.189 83.922,135.035 84.076 C 134.970 84.141,134.879 88.669,134.833 94.139 C 134.741 105.189,134.760 105.002,133.638 105.614 C 133.124 105.894,132.505 105.917,125.250 105.917 C 116.445 105.917,116.482 105.922,115.755 104.667 C 115.258 103.810,115.217 46.616,115.712 45.710 C 116.095 45.008,116.625 44.674,117.615 44.507 C 118.791 44.310,144.392 44.305,146.667 44.502 M210.527 44.575 C 213.397 45.183,213.332 45.001,213.332 52.500 C 213.331 61.191,214.241 60.528,202.175 60.626 C 197.549 60.664,194.143 60.757,193.967 60.851 C 193.586 61.055,193.501 66.540,193.875 66.782 C 193.990 66.856,197.537 66.954,201.758 67.000 C 212.008 67.111,210.917 66.138,210.917 75.167 C 210.917 84.195,212.008 83.222,201.758 83.333 C 197.537 83.379,193.990 83.477,193.875 83.552 C 193.501 83.794,193.586 89.278,193.967 89.482 C 194.143 89.576,197.549 89.670,202.175 89.707 C 214.241 89.805,213.331 89.142,213.332 97.833 C 213.332 106.941,215.658 106.033,192.500 105.965 C 173.732 105.910,175.462 106.045,173.831 104.513 L 173.000 103.733 173.000 75.222 C 173.000 46.902,173.002 46.709,173.336 46.285 C 173.866 45.610,175.229 44.685,175.936 44.519 C 177.096 44.246,209.224 44.298,210.527 44.575 M252.333 44.615 C 254.586 44.779,255.352 45.113,256.025 46.227 L 256.450 46.930 258.302 47.208 C 260.900 47.599,261.470 47.931,261.985 49.354 C 262.104 49.685,262.298 49.820,262.780 49.909 C 263.774 50.092,264.785 50.597,265.013 51.026 C 265.128 51.241,265.520 51.679,265.884 52.000 C 266.249 52.321,266.800 52.808,267.109 53.083 C 267.512 53.442,267.727 53.826,267.871 54.443 C 268.054 55.229,268.124 55.318,268.690 55.487 C 269.649 55.775,270.068 56.417,270.491 58.250 C 270.820 59.671,270.945 59.948,271.529 60.550 C 273.163 62.233,273.201 62.494,273.287 72.500 C 273.395 84.945,272.932 88.167,271.038 88.167 C 270.849 88.167,270.590 89.112,270.329 90.750 C 270.034 92.605,269.189 94.000,268.361 94.000 C 268.119 94.000,267.582 94.807,267.353 95.514 C 267.131 96.196,266.445 96.906,265.833 97.084 C 265.234 97.258,264.701 97.800,264.578 98.358 C 264.398 99.176,263.741 99.788,262.726 100.083 C 261.817 100.347,261.399 100.668,260.769 101.583 C 260.357 102.182,258.954 102.811,257.546 103.029 C 256.156 103.243,255.795 103.425,255.302 104.158 C 254.722 105.020,254.113 105.281,252.167 105.500 C 251.204 105.608,249.854 105.761,249.167 105.839 C 246.962 106.091,222.174 106.037,221.316 105.778 C 220.380 105.496,218.895 104.436,218.577 103.822 C 218.209 103.109,218.209 47.224,218.577 46.512 C 218.881 45.925,220.361 44.844,221.250 44.562 C 222.014 44.318,248.881 44.365,252.333 44.615 M300.956 44.711 C 302.182 45.381,302.083 42.721,302.083 75.167 C 302.083 107.612,302.182 104.952,300.956 105.622 C 300.074 106.104,285.056 106.070,284.083 105.583 C 282.720 104.901,282.834 107.682,282.834 75.203 C 282.833 43.879,282.785 45.534,283.726 44.917 C 284.723 44.264,299.807 44.084,300.956 44.711 M354.429 44.649 C 355.579 45.171,355.583 45.204,355.583 52.613 C 355.583 61.411,356.402 60.563,347.841 60.633 C 343.823 60.666,341.692 60.743,341.549 60.862 C 341.375 61.007,341.333 65.135,341.330 82.479 C 341.326 106.680,341.422 104.921,340.063 105.596 C 339.124 106.062,324.889 106.194,323.719 105.747 C 322.307 105.208,322.427 107.215,322.333 82.583 L 322.250 60.750 315.833 60.667 C 308.542 60.572,308.643 60.590,307.083 59.075 L 306.333 58.346 306.333 52.529 C 306.333 46.951,306.347 46.694,306.669 46.285 C 307.200 45.610,308.562 44.685,309.270 44.519 C 310.706 44.182,353.673 44.306,354.429 44.649 M136.333 57.925 C 136.196 57.954,135.802 58.024,135.458 58.080 L 134.833 58.182 134.833 63.833 L 134.833 69.485 135.458 69.610 C 137.098 69.938,140.500 69.683,140.500 69.233 C 140.500 68.284,141.909 67.000,142.951 67.000 C 143.460 67.000,143.522 66.691,143.620 63.667 C 143.721 60.559,143.726 60.574,142.402 60.197 C 141.597 59.968,141.214 59.587,140.917 58.719 C 140.751 58.235,140.586 58.058,140.224 57.978 C 139.738 57.870,136.783 57.830,136.333 57.925 M239.375 60.777 C 239.021 60.920,239.076 89.429,239.430 89.566 C 239.772 89.697,244.599 89.660,245.247 89.521 C 245.603 89.445,245.852 89.221,246.120 88.735 C 246.511 88.025,246.780 87.850,248.812 86.990 C 250.836 86.133,251.337 85.369,251.842 82.360 C 252.156 80.495,252.622 79.264,253.312 78.480 C 254.384 77.262,254.588 71.928,253.613 70.627 C 252.882 69.653,252.202 68.272,251.907 67.167 C 251.749 66.571,251.488 65.596,251.329 65.000 L 251.040 63.917 249.791 63.570 C 248.019 63.077,246.983 62.521,246.553 61.833 C 245.787 60.608,245.984 60.665,242.625 60.680 C 240.952 60.687,239.490 60.731,239.375 60.777 " stroke="none" fill="#fcbc34" fill-rule="evenodd"></path><path id="path3" d="M82.218 45.824 C 81.742 45.995,81.270 46.186,81.170 46.248 C 81.069 46.310,80.371 46.506,79.618 46.683 C 78.866 46.860,77.912 47.184,77.500 47.403 C 77.087 47.622,76.188 47.967,75.500 48.169 C 73.916 48.635,73.580 48.812,72.480 49.756 C 71.987 50.179,70.972 50.867,70.225 51.285 C 69.268 51.820,68.717 52.257,68.361 52.761 C 68.084 53.154,67.484 53.763,67.029 54.113 C 66.440 54.566,65.977 55.147,65.429 56.121 C 65.004 56.874,64.347 57.849,63.969 58.286 C 63.236 59.133,62.334 60.862,62.333 61.420 C 62.333 62.144,61.611 64.307,61.000 65.417 C 59.059 68.938,59.185 81.503,61.209 86.240 C 61.486 86.887,61.925 88.242,62.185 89.250 C 62.979 92.328,62.986 92.343,63.911 93.320 C 64.396 93.831,64.957 94.587,65.159 95.000 C 65.361 95.412,65.989 96.203,66.555 96.758 C 67.121 97.312,67.825 98.073,68.120 98.449 C 68.415 98.824,69.000 99.298,69.421 99.502 C 69.841 99.705,70.612 100.238,71.134 100.684 C 72.146 101.551,73.686 102.171,76.483 102.839 C 77.340 103.044,78.148 103.371,78.706 103.740 C 80.277 104.778,80.766 104.833,88.410 104.833 L 95.250 104.833 96.250 104.360 C 96.800 104.099,97.353 103.762,97.479 103.610 C 97.659 103.392,98.007 103.333,99.116 103.333 C 100.303 103.333,100.633 103.270,101.220 102.930 C 101.603 102.708,102.356 102.400,102.894 102.246 C 103.503 102.071,104.114 101.746,104.519 101.380 L 105.167 100.795 105.167 95.070 L 105.167 89.345 104.644 88.749 C 104.356 88.422,103.992 88.085,103.835 88.001 C 103.294 87.712,100.108 88.578,97.979 89.594 C 95.574 90.740,95.031 90.826,90.151 90.830 C 85.814 90.834,85.224 90.712,83.443 89.443 C 82.879 89.041,81.967 88.485,81.417 88.207 C 80.203 87.596,79.976 87.356,79.315 85.986 C 79.032 85.398,78.535 84.592,78.212 84.196 C 75.811 81.252,75.882 69.081,78.319 65.998 C 78.707 65.508,79.177 64.801,79.364 64.428 C 79.814 63.530,80.437 62.878,81.243 62.464 C 81.605 62.277,82.327 61.720,82.846 61.224 C 84.319 59.819,85.069 59.607,88.832 59.533 C 90.725 59.496,92.300 59.546,92.915 59.664 C 94.303 59.929,97.330 60.806,97.833 61.089 C 101.867 63.352,103.821 62.313,105.059 57.250 C 105.469 55.573,105.802 54.715,106.579 53.336 C 106.944 52.688,107.000 52.385,107.000 51.070 C 107.000 49.054,106.860 48.938,103.617 48.250 C 102.902 48.098,101.917 47.763,101.428 47.506 C 100.773 47.162,100.181 47.006,99.185 46.918 C 98.441 46.852,97.785 46.724,97.729 46.633 C 97.673 46.541,97.167 46.249,96.605 45.984 L 95.583 45.500 89.333 45.506 C 83.658 45.511,83.004 45.541,82.218 45.824 M118.617 45.745 C 118.072 45.865,117.473 46.124,117.242 46.341 L 116.833 46.725 116.833 75.167 L 116.833 103.609 117.239 103.989 C 117.997 104.702,119.236 104.821,125.917 104.826 C 131.610 104.831,132.119 104.808,132.544 104.527 C 133.541 103.870,133.489 104.466,133.495 93.554 L 133.500 83.526 134.013 83.013 C 135.234 81.791,138.574 82.441,138.940 83.971 C 139.163 84.903,140.038 86.607,140.582 87.167 C 141.102 87.701,141.334 88.138,142.266 90.329 C 142.441 90.739,142.877 91.414,143.236 91.829 C 143.871 92.562,144.495 93.765,145.072 95.366 C 145.227 95.797,145.719 96.643,146.164 97.246 C 146.609 97.849,147.320 99.066,147.745 99.950 C 148.170 100.835,148.738 101.810,149.008 102.117 C 149.277 102.425,149.649 102.971,149.833 103.332 C 150.017 103.693,150.447 104.179,150.789 104.411 L 151.411 104.833 158.795 104.833 C 166.819 104.833,166.849 104.830,167.719 103.868 C 168.123 103.421,167.055 101.217,165.750 99.806 C 165.202 99.213,164.760 98.533,164.563 97.978 C 164.359 97.403,163.924 96.745,163.313 96.089 C 162.709 95.440,162.078 94.492,161.538 93.417 C 161.076 92.500,160.459 91.525,160.165 91.250 C 159.872 90.975,159.344 90.150,158.992 89.417 C 158.631 88.664,158.003 87.713,157.551 87.232 C 157.111 86.764,156.377 85.714,155.921 84.899 C 155.465 84.084,154.819 83.117,154.485 82.750 C 153.658 81.842,153.419 81.323,152.994 79.514 C 152.559 77.658,152.617 77.517,154.281 76.412 C 154.837 76.043,155.696 75.331,156.192 74.829 C 156.687 74.327,157.395 73.680,157.765 73.391 C 158.299 72.975,158.567 72.556,159.057 71.374 C 159.397 70.554,159.925 69.591,160.231 69.233 C 161.557 67.681,161.577 67.584,161.635 62.698 C 161.693 57.811,161.552 56.933,160.491 55.553 C 159.709 54.534,159.259 53.803,158.921 53.000 C 158.534 52.077,157.783 51.241,156.966 50.819 C 156.626 50.644,156.139 50.235,155.882 49.909 C 155.175 49.010,154.604 48.734,151.945 48.002 C 150.599 47.632,148.930 47.063,148.235 46.737 C 145.607 45.507,145.584 45.506,131.833 45.521 C 122.603 45.531,119.345 45.586,118.617 45.745 M176.750 45.693 C 176.567 45.795,176.210 46.069,175.958 46.303 L 175.500 46.729 175.500 75.181 L 175.500 103.632 176.086 104.147 C 176.924 104.883,175.988 104.847,193.346 104.797 L 209.276 104.750 210.096 104.243 L 210.917 103.736 210.917 97.831 L 210.917 91.927 209.860 91.380 L 208.804 90.833 201.527 90.830 C 193.494 90.826,193.455 90.821,192.292 89.709 L 191.833 89.271 191.833 86.500 L 191.833 83.729 192.292 83.291 C 193.454 82.180,193.500 82.174,201.475 82.170 L 208.700 82.167 209.267 81.600 L 209.833 81.033 209.833 75.167 L 209.833 69.300 209.267 68.733 L 208.700 68.167 201.475 68.163 C 193.500 68.159,193.454 68.153,192.292 67.042 L 191.833 66.604 191.833 63.833 L 191.833 61.062 192.292 60.624 C 193.455 59.512,193.494 59.508,201.527 59.504 L 208.804 59.500 209.860 58.953 L 210.917 58.406 210.917 52.502 L 210.917 46.598 210.096 46.090 L 209.276 45.583 193.180 45.545 C 181.617 45.518,176.989 45.560,176.750 45.693 M222.083 45.694 C 221.900 45.795,221.544 46.069,221.292 46.303 L 220.833 46.729 220.833 75.181 L 220.833 103.632 221.420 104.147 C 222.258 104.883,221.612 104.853,235.250 104.795 C 249.028 104.736,248.539 104.773,250.340 103.674 C 250.796 103.396,251.556 103.138,252.256 103.023 C 254.839 102.599,257.466 101.651,258.456 100.785 C 258.970 100.335,260.041 99.672,260.909 99.266 C 262.069 98.724,262.568 98.387,262.933 97.898 C 263.199 97.542,263.913 96.756,264.520 96.151 C 265.127 95.547,266.156 94.259,266.807 93.289 C 267.458 92.319,268.069 91.477,268.165 91.418 C 268.503 91.209,269.123 89.729,269.737 87.667 C 270.078 86.521,270.545 85.058,270.774 84.417 C 271.872 81.337,271.982 80.873,272.157 78.564 C 272.692 71.493,272.182 66.020,270.747 63.417 C 270.443 62.867,269.961 61.592,269.674 60.583 C 269.388 59.575,269.111 58.609,269.059 58.437 C 269.007 58.266,268.563 57.689,268.073 57.156 C 267.583 56.623,266.992 55.811,266.759 55.352 C 266.526 54.892,266.057 54.306,265.715 54.050 C 265.373 53.793,264.620 53.115,264.041 52.544 C 263.428 51.938,262.557 51.290,261.953 50.992 C 261.383 50.711,260.617 50.189,260.250 49.833 C 259.482 49.087,258.593 48.674,256.639 48.154 C 255.875 47.951,254.912 47.618,254.500 47.415 C 254.068 47.202,253.243 46.996,252.554 46.930 C 251.630 46.842,251.068 46.666,250.087 46.158 L 248.815 45.500 235.616 45.505 C 226.313 45.509,222.318 45.564,222.083 45.694 M285.922 45.751 C 285.225 45.903,284.813 46.101,284.547 46.410 L 284.167 46.852 284.167 75.167 L 284.167 103.481 284.544 103.920 C 285.219 104.705,286.349 104.821,293.363 104.827 L 299.643 104.833 300.238 104.272 L 300.833 103.711 300.833 75.167 L 300.833 46.623 300.238 46.061 L 299.643 45.500 293.280 45.517 C 288.730 45.529,286.633 45.596,285.922 45.751 M310.083 45.694 C 309.900 45.795,309.544 46.069,309.292 46.303 L 308.833 46.729 308.833 52.500 L 308.833 58.271 309.292 58.698 C 310.149 59.498,310.167 59.500,316.322 59.500 L 322.167 59.500 322.833 60.167 L 323.500 60.833 323.500 82.301 L 323.500 103.768 324.050 104.301 L 324.599 104.833 330.661 104.833 C 337.287 104.833,338.547 104.720,339.343 104.050 L 339.833 103.637 339.833 82.266 L 339.833 60.896 340.292 60.467 C 341.326 59.499,341.318 59.500,347.592 59.500 L 353.367 59.500 353.933 58.933 L 354.500 58.367 354.500 52.466 L 354.500 46.565 353.950 46.033 L 353.401 45.500 331.909 45.505 C 316.559 45.509,310.321 45.563,310.083 45.694 M95.447 46.344 C 95.706 46.442,96.294 46.918,96.756 47.402 L 97.596 48.282 99.090 48.400 C 100.802 48.535,102.983 48.901,104.375 49.287 L 105.333 49.553 105.333 50.940 C 105.333 51.963,105.227 52.644,104.929 53.538 C 104.707 54.205,104.438 55.387,104.333 56.167 C 104.011 58.533,103.857 58.965,103.124 59.554 C 102.762 59.845,102.359 60.289,102.229 60.540 C 101.607 61.744,99.803 61.777,99.173 60.596 C 98.487 59.310,95.923 58.845,89.489 58.838 C 84.115 58.832,82.699 59.139,82.016 60.461 C 81.674 61.123,81.385 61.350,80.125 61.944 C 79.438 62.268,79.266 62.459,78.823 63.386 C 78.473 64.119,78.037 64.692,77.432 65.215 C 76.057 66.402,75.836 67.780,75.836 75.167 C 75.836 82.565,76.056 83.931,77.439 85.125 C 78.049 85.651,78.416 86.132,78.608 86.655 C 79.028 87.797,79.616 88.490,80.478 88.858 C 80.902 89.039,81.550 89.509,81.917 89.903 C 83.216 91.298,83.735 91.398,90.056 91.466 C 96.816 91.538,98.851 91.233,100.618 89.880 C 101.827 88.954,103.432 88.545,103.949 89.031 L 104.333 89.391 104.333 95.000 C 104.333 101.946,104.648 101.512,99.408 101.811 C 97.361 101.928,96.875 102.127,96.314 103.078 C 95.732 104.065,95.585 104.083,88.417 104.083 C 81.041 104.083,80.490 104.020,79.887 103.097 C 79.383 102.326,78.349 101.880,76.583 101.673 C 74.502 101.428,72.809 100.801,72.250 100.068 C 71.800 99.478,70.954 98.968,70.083 98.762 C 69.283 98.573,68.834 98.195,68.509 97.437 C 68.199 96.715,67.323 95.833,66.916 95.833 C 66.628 95.833,66.000 95.041,66.000 94.677 C 66.000 94.071,65.144 92.696,64.502 92.271 C 63.797 91.805,63.323 90.676,63.086 88.905 C 62.678 85.849,61.968 83.264,61.355 82.602 C 59.825 80.948,60.090 71.268,61.774 67.297 C 62.659 65.211,62.707 65.018,63.277 61.170 C 63.341 60.738,63.596 60.375,64.276 59.747 C 64.970 59.106,65.386 58.507,66.011 57.245 C 66.736 55.782,66.935 55.518,67.708 55.002 C 68.211 54.666,68.836 54.038,69.178 53.527 C 69.708 52.734,69.960 52.544,71.511 51.768 C 72.935 51.055,73.336 50.770,73.727 50.187 C 74.394 49.195,75.792 48.758,79.993 48.229 C 80.758 48.133,81.026 48.000,81.673 47.395 C 82.988 46.164,82.888 46.181,89.281 46.173 C 92.929 46.169,95.147 46.231,95.447 46.344 M144.323 46.440 C 145.040 46.620,145.633 46.899,146.046 47.252 C 146.814 47.908,148.281 48.408,150.167 48.657 C 152.851 49.011,153.908 49.432,154.852 50.522 C 155.455 51.217,155.894 51.553,156.465 51.753 C 157.682 52.181,157.684 52.184,158.072 53.504 C 158.558 55.162,159.041 56.054,159.760 56.618 C 160.779 57.416,160.833 57.714,160.833 62.445 C 160.833 67.170,160.796 67.361,159.747 67.980 C 159.065 68.382,158.511 69.436,158.073 71.167 C 157.758 72.411,157.498 72.771,156.804 72.923 C 156.133 73.070,155.288 73.843,154.930 74.637 C 154.698 75.151,154.499 75.331,153.992 75.483 C 152.710 75.867,151.079 77.777,151.571 78.319 C 151.710 78.473,152.021 79.420,152.263 80.424 C 152.790 82.612,152.972 82.996,154.007 84.099 C 154.445 84.567,155.109 85.556,155.482 86.298 C 155.855 87.039,156.360 87.782,156.603 87.948 C 157.517 88.570,157.978 89.133,158.159 89.849 C 158.474 91.087,158.835 91.763,159.598 92.536 C 160.045 92.990,160.591 93.837,161.004 94.719 C 161.634 96.062,162.436 97.000,162.955 97.000 C 163.224 97.000,163.592 97.670,163.815 98.567 C 164.088 99.669,164.352 100.129,165.159 100.917 C 165.716 101.459,166.833 103.233,166.833 103.574 C 166.833 104.090,165.792 104.167,158.781 104.167 C 150.661 104.167,151.088 104.247,150.678 102.647 C 150.513 102.003,150.238 101.532,149.670 100.922 C 149.111 100.321,148.684 99.597,148.164 98.365 C 147.469 96.720,147.291 96.478,146.061 95.506 C 145.957 95.423,145.747 94.807,145.594 94.136 C 145.229 92.531,144.535 91.178,143.837 90.707 C 143.070 90.189,142.837 89.809,142.561 88.628 C 142.262 87.346,141.577 86.075,140.909 85.566 C 140.625 85.350,140.223 84.778,140.015 84.295 C 139.206 82.414,139.097 82.257,138.340 81.875 C 137.275 81.338,135.058 81.338,133.994 81.875 C 132.607 82.574,132.667 82.046,132.667 93.473 L 132.667 103.530 132.292 103.843 C 131.746 104.298,121.043 104.310,119.333 103.858 L 118.250 103.571 118.250 75.167 L 118.250 46.762 119.333 46.476 C 120.946 46.049,142.636 46.018,144.323 46.440 M209.125 46.498 L 209.667 46.828 209.667 52.493 L 209.667 58.158 209.125 58.454 C 208.635 58.722,207.842 58.758,200.750 58.833 L 192.917 58.917 192.101 59.321 C 191.652 59.544,191.033 59.978,190.726 60.285 L 190.167 60.844 190.167 63.819 L 190.167 66.795 190.855 67.416 C 192.361 68.777,192.124 68.744,200.746 68.798 C 208.309 68.846,208.414 68.851,208.788 69.202 L 209.167 69.558 209.167 75.167 L 209.167 80.775 208.788 81.131 C 208.414 81.482,208.309 81.488,200.746 81.535 L 193.083 81.583 192.136 82.048 C 191.616 82.304,190.959 82.775,190.678 83.096 L 190.167 83.678 190.167 86.584 L 190.167 89.489 190.732 90.054 C 191.043 90.365,191.662 90.799,192.107 91.018 L 192.917 91.417 200.750 91.500 C 207.842 91.575,208.635 91.611,209.125 91.879 L 209.667 92.175 209.667 97.890 L 209.667 103.605 209.078 103.886 C 208.193 104.307,177.554 104.319,176.911 103.897 L 176.500 103.628 176.500 75.168 L 176.500 46.707 176.875 46.446 C 177.530 45.989,208.372 46.039,209.125 46.498 M248.836 46.437 C 249.241 46.599,249.610 46.895,249.754 47.174 C 250.175 47.989,250.782 48.277,252.342 48.400 C 256.101 48.696,257.693 49.155,258.755 50.247 C 259.465 50.976,261.308 52.000,261.912 52.000 C 262.317 52.000,263.000 52.565,263.000 52.901 C 263.000 53.337,263.741 54.051,264.578 54.421 C 265.605 54.875,265.707 54.994,266.083 56.167 C 266.304 56.856,266.594 57.290,267.252 57.917 C 268.204 58.822,268.629 59.815,269.003 62.000 C 269.366 64.124,269.736 65.090,270.505 65.917 C 271.913 67.429,271.912 80.076,270.504 81.583 C 269.846 82.288,269.561 82.924,269.344 84.169 C 268.461 89.234,268.284 90.000,267.993 90.000 C 267.625 90.000,266.782 90.976,266.329 91.926 C 266.010 92.595,265.411 93.412,264.728 94.112 C 264.127 94.728,263.366 95.573,263.035 95.991 C 261.857 97.480,261.402 97.881,260.255 98.437 C 259.616 98.747,259.007 99.000,258.902 99.000 C 258.585 99.000,257.835 99.671,257.423 100.324 C 257.000 100.993,255.171 101.500,252.250 101.755 C 250.553 101.904,249.895 102.144,249.014 102.936 C 247.673 104.142,247.370 104.167,234.132 104.167 C 223.727 104.167,222.762 104.143,222.317 103.881 L 221.833 103.595 221.833 75.169 L 221.833 46.744 222.292 46.460 C 222.977 46.035,247.778 46.014,248.836 46.437 M299.630 46.426 L 300.000 46.686 300.000 75.167 L 300.000 103.648 299.630 103.907 C 299.057 104.308,288.605 104.293,286.875 103.888 L 285.666 103.605 285.708 75.179 L 285.750 46.752 286.750 46.473 C 288.201 46.067,299.061 46.028,299.630 46.426 M353.529 46.442 C 354.045 46.910,353.993 57.892,353.471 58.448 L 353.109 58.833 347.263 58.834 C 340.492 58.835,340.411 58.848,339.292 60.050 L 338.501 60.900 338.459 82.241 L 338.417 103.582 337.417 103.861 C 335.917 104.280,324.929 104.305,324.471 103.891 C 324.179 103.626,324.167 102.732,324.167 82.097 C 324.167 61.574,324.153 60.552,323.862 60.010 C 323.242 58.855,323.111 58.833,316.612 58.833 C 311.422 58.833,310.750 58.803,310.317 58.547 L 309.833 58.261 309.833 52.484 L 309.833 46.707 310.208 46.446 C 310.799 46.034,353.073 46.030,353.529 46.442 M134.003 56.292 C 132.665 56.964,132.667 56.957,132.667 63.733 C 132.667 71.915,132.511 71.659,137.511 71.664 C 141.335 71.668,141.840 71.528,143.271 70.069 C 143.847 69.481,144.383 69.000,144.462 69.000 C 144.812 69.000,145.345 67.584,145.664 65.807 C 146.467 61.321,144.944 57.480,141.913 56.346 C 140.624 55.864,134.933 55.825,134.003 56.292 M141.263 57.153 C 143.645 58.558,144.765 60.219,144.926 62.587 C 145.139 65.729,144.663 67.452,143.282 68.535 C 142.898 68.837,142.407 69.291,142.191 69.545 C 140.839 71.134,135.426 71.582,134.063 70.218 L 133.500 69.656 133.500 63.806 L 133.500 57.956 134.086 57.403 C 134.771 56.758,135.317 56.679,138.623 56.753 C 140.352 56.791,140.754 56.852,141.263 57.153 M238.204 59.071 C 237.386 59.335,236.779 59.694,236.125 60.303 L 235.667 60.729 235.667 75.185 L 235.667 89.641 236.362 90.236 C 237.672 91.357,238.368 91.501,242.465 91.494 C 247.350 91.486,248.658 91.218,249.449 90.066 C 249.967 89.311,250.483 88.880,251.382 88.453 C 252.470 87.936,252.696 87.678,253.238 86.336 C 253.534 85.604,253.909 85.040,254.403 84.586 C 255.691 83.401,256.050 81.163,256.050 74.333 C 256.050 67.754,255.733 66.009,254.375 65.088 C 253.935 64.790,253.577 64.311,253.167 63.471 C 252.566 62.242,252.580 62.255,250.814 61.422 C 250.482 61.266,249.983 60.815,249.705 60.420 C 248.787 59.118,248.028 58.942,243.083 58.887 C 239.892 58.852,238.750 58.895,238.204 59.071 M246.191 59.739 C 247.252 60.061,247.792 60.358,248.746 61.147 C 249.195 61.518,250.017 62.039,250.573 62.306 C 251.777 62.883,252.016 63.130,252.659 64.456 C 252.928 65.013,253.382 65.733,253.667 66.058 C 256.067 68.792,255.926 78.594,253.410 83.833 C 251.760 87.271,251.841 87.156,250.566 87.876 C 249.934 88.232,249.154 88.777,248.833 89.087 C 246.693 91.151,239.632 91.600,237.708 89.794 L 237.333 89.442 237.333 75.167 L 237.333 60.891 237.708 60.539 C 238.803 59.512,243.869 59.034,246.191 59.739 " stroke="none" fill="#646c5c" fill-rule="evenodd"></path><path id="path4" d="M81.250 44.501 C 80.700 44.572,79.760 44.639,79.160 44.649 C 77.688 44.673,76.718 45.162,76.256 46.114 C 75.859 46.930,75.556 47.076,73.750 47.325 C 71.945 47.573,71.035 48.046,70.544 48.993 C 70.092 49.862,70.023 49.915,68.889 50.248 C 67.961 50.521,67.245 51.195,67.060 51.971 C 66.908 52.611,66.727 52.785,66.090 52.904 C 65.372 53.039,64.583 53.919,64.425 54.764 C 64.264 55.623,64.007 55.948,63.146 56.382 C 62.213 56.853,61.765 57.725,61.361 59.859 C 61.074 61.374,61.024 61.482,60.297 62.182 C 58.823 63.602,58.512 65.943,58.505 75.667 C 58.498 85.517,58.868 88.069,60.449 89.083 C 60.926 89.390,60.991 89.544,61.249 91.000 C 61.750 93.831,62.189 94.665,63.308 94.911 C 63.720 95.002,63.819 95.145,64.054 95.989 C 64.404 97.249,67.260 100.500,68.017 100.500 C 68.107 100.500,68.692 100.981,69.319 101.570 C 70.383 102.570,71.192 102.996,72.028 102.999 C 72.579 103.001,73.758 103.635,74.111 104.120 C 75.206 105.623,77.418 105.913,87.750 105.910 C 99.874 105.907,101.614 105.735,102.306 104.470 C 102.842 103.490,103.068 103.322,104.186 103.067 C 106.458 102.550,106.544 102.222,106.469 94.371 C 106.389 86.084,106.630 86.391,100.671 86.995 C 97.153 87.352,96.359 87.635,95.751 88.750 C 95.278 89.617,95.243 89.623,90.389 89.647 C 85.822 89.669,85.904 89.684,85.554 88.810 C 85.179 87.871,83.667 87.062,81.413 86.595 C 80.948 86.498,80.884 86.394,80.560 85.203 C 79.563 81.542,79.487 81.356,78.581 80.353 C 77.804 79.492,77.675 78.756,77.675 75.167 C 77.675 71.494,77.792 70.871,78.667 69.877 C 79.259 69.204,80.000 67.661,80.000 67.100 C 80.000 65.801,81.398 64.130,83.282 63.177 C 84.578 62.522,85.500 61.727,85.500 61.264 C 85.500 60.793,86.354 60.667,89.466 60.678 C 93.035 60.692,92.971 60.677,93.666 61.638 C 94.357 62.593,94.820 62.759,97.907 63.160 C 104.565 64.025,105.511 63.554,105.926 59.167 C 106.076 57.574,106.259 57.116,106.876 56.784 C 108.106 56.120,108.659 54.384,108.664 51.167 C 108.668 48.010,108.284 47.582,105.165 47.263 C 102.958 47.037,102.945 47.031,102.306 45.863 C 101.866 45.060,101.139 44.780,99.083 44.624 C 96.609 44.436,82.503 44.339,81.250 44.501 M117.615 44.507 C 116.625 44.674,116.095 45.008,115.712 45.710 C 115.217 46.616,115.258 103.810,115.755 104.667 C 116.482 105.922,116.445 105.917,125.250 105.917 C 132.505 105.917,133.124 105.894,133.638 105.614 C 134.760 105.002,134.741 105.189,134.833 94.139 C 134.879 88.669,134.970 84.141,135.035 84.076 C 135.189 83.922,136.432 83.683,137.125 83.674 C 137.586 83.668,137.667 83.726,137.667 84.062 C 137.667 86.049,138.821 88.472,139.944 88.842 C 140.303 88.961,140.524 89.155,140.569 89.388 C 141.171 92.577,141.541 93.394,142.624 93.917 C 143.421 94.301,143.581 94.618,143.827 96.299 C 144.110 98.228,144.762 99.316,145.875 99.718 C 146.240 99.849,146.578 100.632,146.806 101.873 C 147.134 103.658,148.865 105.477,150.572 105.831 C 151.169 105.955,154.074 105.999,159.438 105.966 L 167.417 105.917 168.463 105.434 C 169.464 104.971,170.501 104.048,170.499 103.619 C 170.498 103.219,169.838 102.344,169.344 102.089 C 168.788 101.802,168.427 101.208,168.065 99.991 C 167.801 99.100,167.130 98.425,166.337 98.251 C 165.818 98.137,165.796 98.093,165.578 96.750 C 165.416 95.753,164.395 94.045,163.676 93.570 C 163.072 93.170,162.504 92.270,162.496 91.703 C 162.486 90.933,161.847 90.003,161.070 89.628 C 160.324 89.267,160.275 89.201,160.006 88.167 C 159.573 86.506,158.879 85.339,158.026 84.840 C 157.280 84.404,156.852 83.833,156.836 83.250 C 156.812 82.422,156.200 81.523,155.376 81.105 L 154.562 80.692 154.354 79.334 C 154.120 77.809,154.225 77.503,154.979 77.496 C 156.136 77.487,157.000 76.764,157.393 75.474 C 157.440 75.322,157.692 75.151,157.954 75.093 C 159.146 74.832,159.720 74.121,160.072 72.469 C 160.136 72.170,160.393 71.894,160.842 71.642 C 162.470 70.727,162.717 69.511,162.715 62.417 C 162.712 54.594,162.456 53.574,160.293 52.795 C 160.225 52.770,160.069 52.362,159.946 51.888 C 159.622 50.641,159.294 50.237,158.302 49.867 C 157.595 49.604,157.403 49.448,157.301 49.056 C 157.067 48.152,156.384 47.708,154.520 47.247 C 153.141 46.906,152.726 46.731,152.415 46.362 C 151.502 45.277,149.998 44.790,146.667 44.502 C 144.392 44.305,118.791 44.310,117.615 44.507 M175.936 44.519 C 175.229 44.685,173.866 45.610,173.336 46.285 C 173.002 46.709,173.000 46.902,173.000 75.222 L 173.000 103.733 173.831 104.513 C 175.462 106.045,173.732 105.910,192.500 105.965 C 215.658 106.033,213.332 106.941,213.332 97.833 C 213.331 89.142,214.241 89.805,202.175 89.707 C 197.549 89.670,194.143 89.576,193.967 89.482 C 193.586 89.278,193.501 83.794,193.875 83.552 C 193.990 83.477,197.537 83.379,201.758 83.333 C 212.008 83.222,210.917 84.195,210.917 75.167 C 210.917 66.138,212.008 67.111,201.758 67.000 C 197.537 66.954,193.990 66.856,193.875 66.782 C 193.501 66.540,193.586 61.055,193.967 60.851 C 194.143 60.757,197.549 60.664,202.175 60.626 C 214.241 60.528,213.331 61.191,213.332 52.500 C 213.332 45.001,213.397 45.183,210.527 44.575 C 209.224 44.298,177.096 44.246,175.936 44.519 M221.250 44.562 C 220.361 44.844,218.881 45.925,218.577 46.512 C 218.209 47.224,218.209 103.109,218.577 103.822 C 218.895 104.436,220.380 105.496,221.316 105.778 C 222.174 106.037,246.962 106.091,249.167 105.839 C 249.854 105.761,251.204 105.608,252.167 105.500 C 254.113 105.281,254.722 105.020,255.302 104.158 C 255.795 103.425,256.156 103.243,257.546 103.029 C 258.954 102.811,260.357 102.182,260.769 101.583 C 261.399 100.668,261.817 100.347,262.726 100.083 C 263.741 99.788,264.398 99.176,264.578 98.358 C 264.701 97.800,265.234 97.258,265.833 97.084 C 266.445 96.906,267.131 96.196,267.353 95.514 C 267.582 94.807,268.119 94.000,268.361 94.000 C 269.189 94.000,270.034 92.605,270.329 90.750 C 270.590 89.112,270.849 88.167,271.038 88.167 C 272.932 88.167,273.395 84.945,273.287 72.500 C 273.201 62.494,273.163 62.233,271.529 60.550 C 270.945 59.948,270.820 59.671,270.491 58.250 C 270.068 56.417,269.649 55.775,268.690 55.487 C 268.124 55.318,268.054 55.229,267.871 54.443 C 267.727 53.826,267.512 53.442,267.109 53.083 C 266.800 52.808,266.249 52.321,265.884 52.000 C 265.520 51.679,265.128 51.241,265.013 51.026 C 264.785 50.597,263.774 50.092,262.780 49.909 C 262.298 49.820,262.104 49.685,261.985 49.354 C 261.470 47.931,260.900 47.599,258.302 47.208 L 256.450 46.930 256.025 46.227 C 255.352 45.113,254.586 44.779,252.333 44.615 C 248.881 44.365,222.014 44.318,221.250 44.562 M284.948 44.504 C 283.918 44.681,283.365 45.051,283.069 45.758 C 282.667 46.720,282.721 103.858,283.125 104.667 C 283.750 105.917,283.750 105.917,292.583 105.917 C 301.297 105.917,301.164 105.933,301.789 104.789 C 302.067 104.280,302.083 102.657,302.083 75.167 C 302.083 42.721,302.182 45.381,300.956 44.711 C 300.360 44.386,286.666 44.208,284.948 44.504 M309.270 44.519 C 308.562 44.685,307.200 45.610,306.669 46.285 C 306.347 46.694,306.333 46.951,306.333 52.529 L 306.333 58.346 307.083 59.075 C 308.643 60.590,308.542 60.572,315.833 60.667 L 322.250 60.750 322.333 82.583 C 322.427 107.215,322.307 105.208,323.719 105.747 C 324.889 106.194,339.124 106.062,340.063 105.596 C 341.422 104.921,341.326 106.680,341.330 82.479 C 341.333 65.135,341.375 61.007,341.549 60.862 C 341.692 60.743,343.823 60.666,347.841 60.633 C 356.402 60.563,355.583 61.411,355.583 52.613 C 355.583 45.204,355.579 45.171,354.429 44.649 C 353.673 44.306,310.706 44.182,309.270 44.519 M96.887 45.400 C 97.545 45.620,98.683 45.853,99.417 45.918 C 100.625 46.025,100.805 46.088,101.333 46.593 C 102.098 47.324,102.890 47.638,104.704 47.931 C 107.343 48.358,107.833 48.850,107.833 51.066 C 107.833 52.701,107.553 53.613,106.648 54.929 C 106.086 55.745,105.665 56.963,105.097 59.412 C 104.222 63.188,100.621 63.782,95.242 61.039 C 93.493 60.146,92.405 59.970,89.052 60.035 C 85.372 60.107,84.890 60.252,83.301 61.767 C 82.775 62.269,81.930 62.863,81.425 63.087 C 80.577 63.462,80.470 63.574,80.029 64.547 C 79.766 65.127,79.286 65.986,78.962 66.457 C 77.492 68.594,77.010 70.743,77.010 75.167 C 77.010 79.557,77.452 81.564,78.916 83.833 C 79.241 84.337,79.661 85.162,79.849 85.667 C 80.264 86.779,80.690 87.261,81.483 87.518 C 82.503 87.847,83.391 88.344,84.000 88.926 C 84.321 89.232,85.023 89.683,85.561 89.929 L 86.538 90.375 90.811 90.301 C 95.503 90.219,95.875 90.146,97.305 89.029 C 98.105 88.404,99.021 88.110,101.544 87.667 L 103.620 87.303 104.317 87.658 C 105.678 88.352,105.665 88.286,105.666 95.036 L 105.667 100.988 105.155 101.572 C 104.795 101.981,104.268 102.293,103.384 102.619 C 102.644 102.892,101.830 103.341,101.412 103.708 C 100.711 104.322,100.675 104.333,99.324 104.333 C 98.161 104.333,97.805 104.404,97.016 104.792 L 96.083 105.250 88.083 105.250 L 80.083 105.250 79.083 104.813 C 77.023 103.913,75.524 103.327,73.508 102.632 C 71.798 102.043,71.313 101.799,70.758 101.250 C 70.387 100.883,69.602 100.319,69.014 99.996 C 68.245 99.574,67.785 99.176,67.375 98.580 C 67.061 98.123,66.455 97.485,66.027 97.160 C 65.473 96.739,65.095 96.254,64.711 95.467 C 64.367 94.764,63.927 94.171,63.497 93.831 C 62.616 93.133,62.399 92.680,61.922 90.537 C 61.486 88.575,61.300 88.077,60.635 87.083 C 58.584 84.019,58.548 67.483,60.586 64.417 C 60.890 63.958,61.288 63.058,61.469 62.417 C 61.650 61.775,61.929 60.786,62.089 60.219 C 62.413 59.069,62.631 58.688,63.568 57.632 C 63.922 57.233,64.528 56.346,64.915 55.662 C 65.397 54.811,65.877 54.220,66.435 53.797 C 66.883 53.456,67.554 52.781,67.926 52.297 C 68.410 51.667,68.950 51.226,69.828 50.742 C 70.502 50.371,71.424 49.733,71.876 49.325 C 72.906 48.396,73.116 48.287,74.724 47.849 C 76.278 47.425,76.911 47.125,77.583 46.492 C 77.984 46.115,78.381 45.969,79.583 45.754 C 80.408 45.607,81.458 45.383,81.917 45.255 C 83.576 44.792,95.413 44.907,96.887 45.400 M146.917 45.387 C 147.558 45.542,148.758 45.999,149.583 46.403 C 150.408 46.807,151.833 47.339,152.750 47.585 C 155.074 48.208,155.351 48.347,156.458 49.446 C 156.996 49.980,157.735 50.611,158.099 50.848 C 158.603 51.176,158.908 51.582,159.368 52.538 C 159.701 53.229,160.245 54.067,160.576 54.398 C 161.961 55.783,162.210 57.150,162.130 62.917 C 162.059 68.022,162.017 68.233,160.740 69.880 C 160.329 70.410,159.699 71.480,159.339 72.257 C 158.826 73.369,158.568 73.733,158.135 73.960 C 157.831 74.120,157.096 74.750,156.500 75.361 C 155.904 75.972,155.117 76.621,154.750 76.803 C 154.383 76.985,153.908 77.322,153.694 77.552 L 153.304 77.970 153.583 79.276 C 153.993 81.195,153.978 81.162,154.828 82.075 C 155.260 82.538,155.934 83.504,156.326 84.222 C 156.718 84.940,157.474 86.018,158.007 86.618 C 158.650 87.343,159.103 88.052,159.355 88.730 C 159.596 89.378,160.018 90.054,160.514 90.583 C 160.976 91.077,161.651 92.130,162.168 93.164 C 162.783 94.393,163.255 95.099,163.757 95.541 C 164.284 96.005,164.588 96.474,164.913 97.324 C 165.244 98.191,165.571 98.688,166.227 99.326 C 166.854 99.935,167.332 100.646,167.920 101.841 C 168.888 103.808,168.835 104.077,167.328 104.875 L 166.462 105.333 158.856 105.331 C 150.288 105.328,150.441 105.349,149.539 103.997 C 149.326 103.678,148.867 103.102,148.519 102.718 C 148.171 102.334,147.753 101.659,147.590 101.218 C 147.165 100.065,146.389 98.712,145.591 97.733 C 145.109 97.141,144.762 96.456,144.452 95.482 C 144.001 94.068,143.799 93.716,142.572 92.211 C 142.159 91.706,141.780 90.995,141.605 90.398 C 141.193 88.995,140.919 88.507,140.002 87.535 C 139.330 86.823,139.110 86.422,138.728 85.212 C 138.065 83.115,137.933 83.000,136.190 83.000 C 134.963 83.000,134.719 83.049,134.386 83.362 L 134.000 83.725 134.000 93.773 L 134.000 103.822 133.501 104.390 C 132.644 105.367,132.692 105.361,125.063 105.303 C 117.363 105.245,117.536 105.268,116.603 104.160 L 116.167 103.641 116.167 75.167 L 116.167 46.692 116.601 46.176 C 117.597 44.992,117.059 45.030,132.417 45.071 C 144.259 45.103,145.880 45.138,146.917 45.387 M210.333 45.433 C 210.746 45.625,211.327 46.011,211.625 46.291 L 212.167 46.800 212.167 52.451 L 212.167 58.101 211.625 58.625 C 210.298 59.909,210.316 59.907,201.750 60.000 C 191.902 60.107,192.667 59.782,192.667 63.863 L 192.667 66.674 193.449 67.170 L 194.232 67.667 201.458 67.667 C 211.287 67.667,210.332 66.863,210.333 75.133 C 210.334 83.481,211.291 82.665,201.491 82.666 L 194.232 82.667 193.449 83.163 L 192.667 83.659 192.667 86.470 C 192.667 90.551,191.902 90.226,201.750 90.333 C 210.316 90.426,210.298 90.424,211.625 91.708 L 212.167 92.232 212.167 97.882 L 212.167 103.533 211.625 104.042 C 210.252 105.333,211.548 105.244,193.333 105.297 C 175.391 105.348,176.165 105.390,175.255 104.309 L 174.833 103.808 174.833 75.176 L 174.833 46.545 175.195 46.085 C 176.094 44.943,175.112 44.999,193.250 45.044 C 209.440 45.083,209.590 45.086,210.333 45.433 M250.167 45.393 C 250.579 45.564,251.592 45.778,252.417 45.868 C 253.601 45.999,254.004 46.114,254.333 46.415 C 254.915 46.947,255.992 47.462,256.944 47.661 C 259.076 48.108,259.718 48.390,260.660 49.292 C 261.168 49.778,262.046 50.396,262.611 50.665 C 263.288 50.987,263.856 51.417,264.278 51.926 C 264.629 52.352,265.294 52.943,265.755 53.241 C 266.391 53.652,266.728 54.036,267.156 54.839 C 267.466 55.421,268.077 56.226,268.514 56.628 C 269.389 57.434,269.604 57.880,270.175 60.064 C 270.418 60.994,270.790 61.897,271.174 62.491 C 272.563 64.641,272.750 65.976,272.749 73.750 C 272.747 81.572,272.643 82.248,270.687 87.083 C 270.316 88.000,269.858 89.293,269.669 89.957 C 269.423 90.818,269.117 91.419,268.604 92.049 C 268.208 92.535,267.469 93.552,266.963 94.309 C 266.457 95.065,265.736 95.909,265.361 96.185 C 264.986 96.461,264.305 97.201,263.848 97.829 C 263.063 98.908,262.919 99.019,261.270 99.808 C 260.309 100.268,259.444 100.793,259.347 100.974 C 258.995 101.632,256.086 102.862,252.167 104.012 C 251.571 104.186,250.521 104.536,249.833 104.790 L 248.583 105.250 235.583 105.302 C 221.310 105.360,221.722 105.387,220.768 104.332 L 220.167 103.666 220.167 75.172 L 220.167 46.678 220.705 46.065 C 221.683 44.951,220.879 45.005,235.833 45.046 C 248.647 45.081,249.459 45.101,250.167 45.393 M300.264 45.342 C 301.625 46.183,301.500 43.178,301.500 75.167 C 301.500 103.486,301.499 103.545,301.158 104.097 C 300.360 105.389,300.549 105.362,292.546 105.303 C 284.571 105.244,284.724 105.266,283.876 104.008 L 283.500 103.451 283.501 75.184 C 283.501 43.621,283.401 46.343,284.597 45.559 C 285.619 44.889,299.226 44.700,300.264 45.342 M354.018 45.346 C 354.991 46.039,355.000 46.105,355.000 52.500 C 355.000 60.717,355.711 59.999,347.580 59.999 L 341.743 60.000 341.121 60.512 L 340.500 61.024 340.500 82.351 C 340.500 106.081,340.600 104.099,339.358 104.872 C 338.534 105.385,325.118 105.575,324.175 105.088 C 322.903 104.430,323.001 106.334,323.001 82.362 L 323.000 60.974 322.513 60.487 L 322.026 60.000 316.221 59.998 C 307.534 59.996,308.167 60.589,308.167 52.445 C 308.167 45.759,308.125 45.973,309.570 45.316 C 310.221 45.021,311.185 45.007,331.891 45.004 L 353.532 45.000 354.018 45.346 M135.871 57.321 C 135.128 57.412,134.705 57.563,134.412 57.837 L 134.000 58.225 134.000 63.833 L 134.000 69.442 134.395 69.813 C 135.664 71.005,140.801 70.484,141.671 69.076 C 141.861 68.770,142.384 68.293,142.834 68.016 C 144.124 67.222,144.407 66.257,144.352 62.840 C 144.320 60.871,143.938 59.901,143.000 59.417 C 142.732 59.278,142.303 58.899,142.048 58.574 C 141.097 57.366,138.979 56.936,135.871 57.321 M140.224 57.978 C 140.586 58.058,140.751 58.235,140.917 58.719 C 141.214 59.587,141.597 59.968,142.402 60.197 C 143.726 60.574,143.721 60.559,143.620 63.667 C 143.522 66.691,143.460 67.000,142.951 67.000 C 141.909 67.000,140.500 68.284,140.500 69.233 C 140.500 69.683,137.098 69.938,135.458 69.610 L 134.833 69.485 134.833 63.833 L 134.833 58.182 135.458 58.080 C 135.802 58.024,136.196 57.954,136.333 57.925 C 136.783 57.830,139.738 57.870,140.224 57.978 M238.875 60.428 L 238.167 60.852 238.167 75.169 L 238.167 89.486 238.932 89.934 L 239.697 90.383 242.557 90.287 C 245.934 90.173,246.519 90.006,248.081 88.709 C 248.662 88.227,249.612 87.619,250.194 87.359 C 251.441 86.799,251.516 86.717,251.967 85.417 C 252.702 83.296,253.204 82.057,253.602 81.374 C 255.460 78.188,255.176 70.161,253.080 66.631 C 252.580 65.788,252.085 64.833,251.982 64.508 C 251.770 63.844,251.057 63.000,250.708 63.000 C 250.227 63.000,248.651 62.121,247.863 61.412 C 246.446 60.137,245.925 60.000,242.528 60.002 C 239.670 60.003,239.562 60.016,238.875 60.428 M245.928 60.958 C 246.071 61.119,246.352 61.512,246.553 61.833 C 246.983 62.521,248.019 63.077,249.791 63.570 L 251.040 63.917 251.329 65.000 C 251.488 65.596,251.749 66.571,251.907 67.167 C 252.202 68.272,252.882 69.653,253.613 70.627 C 254.588 71.928,254.384 77.262,253.312 78.480 C 252.622 79.264,252.156 80.495,251.842 82.360 C 251.337 85.369,250.836 86.133,248.812 86.990 C 246.780 87.850,246.511 88.025,246.120 88.735 C 245.852 89.221,245.603 89.445,245.247 89.521 C 244.599 89.660,239.772 89.697,239.430 89.566 C 239.076 89.429,239.021 60.920,239.375 60.777 C 240.019 60.517,245.673 60.674,245.928 60.958 " stroke="none" fill="#bf9d44" fill-rule="evenodd"></path></g></svg>