<svg id="Layer_1" data-name="Layer 1" xmlns="http://www.w3.org/2000/svg" viewBox="0 0 49.82 49.78"><defs><style>.cls-1{fill:#aa8768;}</style></defs><path class="cls-1" d="M25,31.2A6.23,6.23,0,1,1,31.24,25,6.23,6.23,0,0,1,25,31.2Zm0-10.38A4.15,4.15,0,1,0,29.16,25,4.15,4.15,0,0,0,25,20.82Z" transform="translate(-0.11 -0.07)"/><path class="cls-1" d="M25,49.85a25.19,25.19,0,0,1-5.41-.59l-.8-.14V44.77a19.8,19.8,0,0,1-3.37-1.4l-3.06,3.06L11.63,46A25.23,25.23,0,0,1,4,38.33l-.45-.73,3.06-3.06A21.11,21.11,0,0,1,5.24,31.2H.89l-.18-.81a24.74,24.74,0,0,1,0-10.83l.18-.81H5.24a19.8,19.8,0,0,1,1.4-3.37L3.55,12.32,4,11.59A25.12,25.12,0,0,1,11.66,4l.73-.45,3.06,3.06A21.11,21.11,0,0,1,18.79,5.2V.85L19.6.67a25,25,0,0,1,10.83,0l.81.18V5.2a20.65,20.65,0,0,1,3.37,1.4l3.06-3.09L38.4,4A25.12,25.12,0,0,1,46,11.62l.44.73-3.06,3.06a19.8,19.8,0,0,1,1.4,3.37h4.35l.18.81a25,25,0,0,1,0,10.83l-.18.78H44.81a19.8,19.8,0,0,1-1.4,3.37l3.06,3.06-.44.73A25.12,25.12,0,0,1,38.37,46l-.73.44-3.06-3.06a19.8,19.8,0,0,1-3.37,1.4v4.35l-.81.18A24.51,24.51,0,0,1,25,49.85Zm-4.15-2.46a22.28,22.28,0,0,0,8.3,0V43.2l.73-.21a18.58,18.58,0,0,0,4.35-1.8l.68-.39,3,3a23.15,23.15,0,0,0,5.86-5.86l-3-3,.4-.69A18.83,18.83,0,0,0,43,29.9l.2-.73h4.22a22.28,22.28,0,0,0,0-8.3H43.24L43,20.14a18.58,18.58,0,0,0-1.8-4.35l-.39-.69,3-3A23.11,23.11,0,0,0,38,6.27L35,9.15l-.69-.39A18.16,18.16,0,0,0,29.93,7l-.73-.21V2.53a22.7,22.7,0,0,0-8.3,0V6.75L20.1,7a18.16,18.16,0,0,0-4.35,1.8l-.69.39-3-3A23,23,0,0,0,6.23,12l3,3-.39.69A18.56,18.56,0,0,0,7,20.06l-.2.73H2.57a22.7,22.7,0,0,0,0,8.3H6.79l.2.73A18.26,18.26,0,0,0,8.8,34.17l.39.69-3,3a23,23,0,0,0,5.86,5.85l3-3,.68.4A18.58,18.58,0,0,0,20.08,43l.77.2Z" transform="translate(-0.11 -0.07)"/></svg>