<svg id="Layer_1" data-name="Layer 1" xmlns="http://www.w3.org/2000/svg" viewBox="0 0 49.76 49.76"><defs><style>.cls-1{fill:#aa8768;}</style></defs><path class="cls-1" d="M20.88,37.6l-2.07-15a1.45,1.45,0,0,1,.35-1.17,1.58,1.58,0,0,1,1.2-.53h9.33a1.54,1.54,0,0,1,1.2.54,1.44,1.44,0,0,1,.34,1.16l-2.07,15-2.06-.28,2-14.38H21l2,14.38Zm8.3-15.32ZM5.52,27A17.5,17.5,0,0,1,2.2,16.72,17.68,17.68,0,0,1,9.73,2.27L8.54.57A19.71,19.71,0,0,0,3.69,28l.14.2ZM49.89,16.72v-.53l-2.06,0v.48a17.44,17.44,0,0,1-3.45,10.5L46,28.43A19.57,19.57,0,0,0,49.89,16.72Z" transform="translate(-0.13 -0.12)"/><path class="cls-1" d="M33.32,38.5H15.64l0-1.06a14.8,14.8,0,0,0-.06-1.63c-.35-4.06-2.63-7.76-4.49-10.13a15.63,15.63,0,0,1-3.33-9.56c0-8.83,7.69-16,17.2-16h0c9.51,0,17.23,7.17,17.23,16a15.63,15.63,0,0,1-3.33,9.55c-1.85,2.38-4.14,6.08-4.49,10.14a15.17,15.17,0,0,0-.06,1.65l0,1.08ZM17.75,36.43H32.33a4,4,0,0,1,.06-.82c.38-4.56,2.89-8.62,4.91-11.24a13.51,13.51,0,0,0,2.93-8.27c0-7.67-6.8-13.91-15.14-13.91h0C16.74,2.19,10,8.43,10,16.1a13.51,13.51,0,0,0,2.93,8.27c2,2.62,4.53,6.68,4.92,11.24A1.94,1.94,0,0,0,17.75,36.43ZM34.36,49.88H21.81c-3.5,0-6.12-2.85-6.12-6.63V40.57H34.36Zm-16.6-7.23v.65c0,2.27,1.39,4.56,4,4.56H32.28V42.65Z" transform="translate(-0.13 -0.12)"/></svg>