<svg id="Layer_1" data-name="Layer 1" xmlns="http://www.w3.org/2000/svg" viewBox="0 0 49.75 49.76"><defs><style>.cls-1{fill:#aa8768;}</style></defs><path class="cls-1" d="M49.89,49.9H.14v-1C.14,38.64,8,31.25,18.8,31.25H31.24c10.82,0,18.65,7.42,18.65,17.63Zm-47.65-2H47.8c-.51-8.48-7.32-14.53-16.56-14.53H18.81C9.56,33.32,2.76,39.37,2.24,47.85Z" transform="translate(-0.14 -0.14)"/><path class="cls-1" d="M25,27.11A13.49,13.49,0,1,1,38.5,13.62,13.5,13.5,0,0,1,25,27.11ZM25,2.23A11.42,11.42,0,1,0,36.43,13.64v0A11.42,11.42,0,0,0,25,2.22Z" transform="translate(-0.14 -0.14)"/></svg>