<svg id="Layer_1" data-name="Layer 1" xmlns="http://www.w3.org/2000/svg" viewBox="0 0 49.67 49.67"><defs><style>.cls-1{fill:#aa8768;}</style></defs><path class="cls-1" d="M39.47,10.5h0V9L30.58.15H.13V49.83H39.47V31.9L37.38,34V47.78H2.19V2.22H27V6a6.64,6.64,0,0,0,6.64,6.62h3.71V27.82l2.08-1.47V12.57h0Zm-5.8,0A4.56,4.56,0,0,1,29.11,6V2.22h.62L37.38,9.9v.6Zm-.42,6.22H6.33V14.64H33.25Zm0,4.14H6.33V18.79H33.25Zm0,4.14H6.33V22.93H33.25Zm0,4.14H6.33V27.07H33.25Zm0,4.14H6.33V31.21H33.25Zm-4.14,4.13H6.33V35.35H29.11Z" transform="translate(-0.13 -0.15)"/><path class="cls-1" d="M45.42,18.41,24.63,39.24v4.38H29L49.8,22.83Zm1.46,4.39-1.46,1.46L44,22.8l1.46-1.46ZM28.16,41.56H26.7V40.1L42.49,24.3,44,25.76Z" transform="translate(-0.13 -0.15)"/></svg>