<svg id="Layer_1" data-name="Layer 1" xmlns="http://www.w3.org/2000/svg" viewBox="0 0 49.68 49.69"><defs><style>.cls-1{fill:#aa8768;}</style></defs><path class="cls-1" d="M37.4,20.81H29.29a10.13,10.13,0,0,0-2.19.24c0,.26,0,.52,0,.79a11.87,11.87,0,0,1-.08,1.33,8.88,8.88,0,0,1,2.24-.29h8.1c5.8,0,10.07,5.6,10.42,13.46H29.56a17.33,17.33,0,0,1,1.33,2.07h19v-1C49.89,27.77,44.65,20.81,37.4,20.81Z" transform="translate(-0.21 -0.09)"/><path class="cls-1" d="M33.34,18.73a9.32,9.32,0,1,1,9.32-9.32A9.32,9.32,0,0,1,33.34,18.73Zm0-16.57A7.26,7.26,0,1,0,40.6,9.42h0A7.26,7.26,0,0,0,33.34,2.16Z" transform="translate(-0.21 -0.09)"/><path class="cls-1" d="M31.27,49.78H.21v-1c0-9,4.94-15.53,11.75-15.53h7.57c6.8,0,11.74,6.53,11.74,15.53Zm-29-2.05H29.18c-.35-7.26-4.3-12.42-9.65-12.42H12C6.6,35.3,2.65,40.47,2.3,47.73Z" transform="translate(-0.21 -0.09)"/><path class="cls-1" d="M15.74,31.16a9.33,9.33,0,1,1,9.31-9.34v0A9.34,9.34,0,0,1,15.74,31.16Zm0-16.57A7.25,7.25,0,1,0,23,21.84h0A7.26,7.26,0,0,0,15.74,14.59Z" transform="translate(-0.21 -0.09)"/></svg>