<svg id="Layer_1" data-name="Layer 1" xmlns="http://www.w3.org/2000/svg" viewBox="0 0 49.71 49.64"><defs><style>.cls-1{fill:#aa8768;}</style></defs><path class="cls-1" d="M45.67,49.76l-6.62-6.13H27.44A6.64,6.64,0,0,1,20.81,37V20.84h29V43.63H45.67ZM22.88,22.92V37a4.57,4.57,0,0,0,4.56,4.56H39.87L43.61,45V41.56h4.14V22.92Z" transform="translate(-0.09 -0.12)"/><path class="cls-1" d="M8.38,38.88V31.2H6.72A6.63,6.63,0,0,1,.09,24.57V.12H43.61V18.77H41.53V2.19H2.16V24.57a4.58,4.58,0,0,0,4.56,4.56h3.73v4.75l4.75-4.75h3.54V31.2H16.06Z" transform="translate(-0.09 -0.12)"/></svg>