<svg id="Layer_1" data-name="Layer 1" xmlns="http://www.w3.org/2000/svg" viewBox="0 0 49.71 48.92"><defs><style>.cls-1{fill:#aa8768;}</style></defs><path class="cls-1" d="M22.94,12.75l.81-1.91L20.54,9.47l1.71-1.71L14.93.45,2,13.34a6.62,6.62,0,0,0,0,9.37l2.64,2.64,1-1L7,27.6l1.9-.82-1.71-4L19,11.05ZM3.48,21.25a4.58,4.58,0,0,1,0-6.45L14.92,3.37l4.39,4.39L4.68,22.38Z" transform="translate(-0.08 -0.44)"/><circle class="cls-1" cx="4.58" cy="17.59" r="1.04"/><path class="cls-1" d="M49.79,17.73,32.51.44,26.66,6.29l1.46,1.5L26.88,9l-4.66,1.65L15,18l.58.73a7.42,7.42,0,0,0,4.95,2.53h.29A7.25,7.25,0,0,0,26,18.81l1.14-1.11,4.17-.85-1.75-1.77-3.44.74-1.58,1.55a5.15,5.15,0,0,1-3.84,1.84,4.88,4.88,0,0,1-2.76-1.16l5.5-5.54,4.66-1.64,1.57-1.58L41.51,21.16l-2.6,5.17,1.85.93,2.29-4.58.89.92ZM32.51,3.37,46.87,17.73l-2.93,2.93L29.57,6.3Z" transform="translate(-0.08 -0.44)"/><path class="cls-1" d="M45,30.49h0L33.22,18.74l-2.44.5L43.5,32A1.86,1.86,0,0,1,41,34.75a.71.71,0,0,1-.15-.15L28.82,22.54,27.36,24,38.49,35.15a1.86,1.86,0,1,1-2.34,2.9,1.42,1.42,0,0,1-.25-.24l-9.25-9.24L25.19,30l8.65,8.66a1.91,1.91,0,0,1,0,2.66,1.87,1.87,0,0,1-2.61,0L26,36.09l-1.46,1.47,4.5,4.5a1.9,1.9,0,0,1,0,2.65,1.82,1.82,0,0,1-1.3.55h0a1.85,1.85,0,0,1-1.32-.54l-1.46,1.46a3.85,3.85,0,0,0,2.78,1.15h0a3.86,3.86,0,0,0,3.87-3.49,3.87,3.87,0,0,0,1,.12h0a3.85,3.85,0,0,0,2.78-1.15,4,4,0,0,0,1.12-2.47,3.89,3.89,0,0,0,4.59-3c0-.09,0-.18,0-.26a4,4,0,0,0,1.13.18A3.89,3.89,0,0,0,45,36.07,4,4,0,0,0,45,30.49Z" transform="translate(-0.08 -0.44)"/><path class="cls-1" d="M23.29,40.39l2.54-2.58a4.19,4.19,0,0,0,.06-5.88,4,4,0,0,0-2.2-1.14A4.15,4.15,0,0,0,23,26.06a3.94,3.94,0,0,0-2.86-1.19h0A4.3,4.3,0,0,0,17,26.18L15.2,28a3.9,3.9,0,0,0-1-2,4,4,0,0,0-2.83-1.18h0a4.48,4.48,0,0,0-3.17,1.35L5.59,28.85a4.28,4.28,0,0,0-.18,6A3.93,3.93,0,0,0,8.25,36h.44a4,4,0,0,0,3.48,4.41,2.75,2.75,0,0,0,.5,0h.39a4.08,4.08,0,0,0,1.15,3.24,4,4,0,0,0,2.88,1.2h.31a4.15,4.15,0,0,0,3.87,4.43h.26a3.94,3.94,0,0,0,2.84-1.18l.84-.89a4.13,4.13,0,0,0-1.93-6.86ZM8.25,34a2,2,0,0,1-1.37-.56,2.2,2.2,0,0,1,.17-3.1h0l2.58-2.63A2.35,2.35,0,0,1,11.33,27h0a1.9,1.9,0,0,1,1.36.54,2.19,2.19,0,0,1-.18,3.1h0L9.92,33.26A2.44,2.44,0,0,1,8.23,34Zm4.39,4.38a1.93,1.93,0,0,1-1.38-.56,2.19,2.19,0,0,1,.13-3l7.07-7.16a2.27,2.27,0,0,1,1.61-.7h0a2,2,0,0,1,1.38.57,2.2,2.2,0,0,1-.13,3l-7.07,7.16a2.3,2.3,0,0,1-1.61.73Zm4.42,4.39a2,2,0,0,1-1.41-.58,2.12,2.12,0,0,1,.06-3l5.75-5.85A2.1,2.1,0,0,1,23,32.73h0a2,2,0,0,1,1.41.58,2.11,2.11,0,0,1-.06,3l-5.75,5.85a2.06,2.06,0,0,1-1.5.64Zm6.65,3-.85.9a1.9,1.9,0,0,1-1.35.56h0A2.09,2.09,0,0,1,20,43.71l.86-.92a1.83,1.83,0,0,1,1.34-.55,2.1,2.1,0,0,1,1.53,3.5Z" transform="translate(-0.08 -0.44)"/></svg>